<svg width="70" height="57" viewBox="0 0 70 57" fill="none" xmlns="http://www.w3.org/2000/svg">
<path opacity="0.1" d="M40.6715 6.43479C36.1837 6.30552 31.9095 5.0981 27.8309 3.77697C23.7523 2.45585 19.7034 0.994623 15.3231 0.294806C12.5059 -0.15527 9.28428 -0.21889 7.01432 1.03929C4.82957 2.2501 4.1241 4.34075 3.74464 6.28115C3.45853 7.74035 3.29079 9.2767 4.07337 10.6425C4.61448 11.59 5.58104 12.388 6.24797 13.2962C8.56798 16.4576 6.92841 20.3553 4.41359 23.4416C3.23397 24.8893 1.86563 26.2706 0.95521 27.8117C0.044789 29.3528 -0.374573 31.1199 0.420185 32.6901C1.20953 34.2468 3.09057 35.4183 5.12854 36.242C9.26737 37.9137 14.1448 38.3922 18.9005 38.6636C29.4279 39.2633 40.012 39.002 50.5678 38.7435C54.4739 38.6474 58.3977 38.5499 62.2409 38.0464C64.3749 37.7668 66.5779 37.3235 68.1255 36.2528C70.0925 34.8938 70.5795 32.592 69.2618 30.8878C67.0514 28.029 60.9422 27.319 59.394 24.251C58.5431 22.5624 59.417 20.6809 60.6527 19.1147C63.3042 15.7551 67.7488 12.8076 67.9828 8.96739C68.1431 6.32785 66.0071 3.68831 62.7036 2.44028C59.2411 1.13201 54.4394 1.29648 51.8813 3.46226C49.2562 5.69166 44.6338 6.55188 40.6715 6.43479Z" fill="#212D3D"/>
<path opacity="0.1" d="M29.4517 56.2842C40.313 56.2842 49.1178 55.3958 49.1178 54.2998C49.1178 53.2039 40.313 52.3154 29.4517 52.3154C18.5904 52.3154 9.78564 53.2039 9.78564 54.2998C9.78564 55.3958 18.5904 56.2842 29.4517 56.2842Z" fill="white"/>
<path d="M11.4628 54.0863C11.4628 54.0863 10.5903 49.1396 7.3517 46.6882C5.99283 45.6594 4.99854 44.2605 4.56429 42.6673C4.35993 41.9124 4.22901 41.1395 4.17334 40.3594" stroke="#535461" stroke-width="2" stroke-miterlimit="10"/>
<path d="M2.14072 38.8035C2.41128 39.3334 4.21927 40.4061 4.21927 40.4061C4.21927 40.4061 4.44654 38.4021 4.17395 37.8715C3.90137 37.3409 3.227 37.1196 2.66425 37.3767C2.10149 37.6339 1.86814 38.2728 2.14072 38.8035Z" fill="white"/>
<path d="M1.96831 42.5108C2.50266 42.816 4.636 42.7889 4.636 42.7889C4.636 42.7889 3.67349 40.99 3.14117 40.6847C2.60885 40.3795 1.91285 40.5406 1.58953 41.0448C1.26622 41.549 1.43464 42.2055 1.96831 42.5108Z" fill="white"/>
<path d="M4.62242 47.4987C5.24605 47.5075 7.07298 46.4666 7.07298 46.4666C7.07298 46.4666 5.28122 45.3729 4.65692 45.3634C4.03261 45.3539 3.51923 45.825 3.50705 46.4145C3.49488 47.004 3.99811 47.4879 4.62242 47.4987Z" fill="white"/>
<path d="M7.52814 50.8434C8.14095 50.9524 10.1282 50.2174 10.1282 50.2174C10.1282 50.2174 8.55761 48.8516 7.94548 48.7447C7.33334 48.6377 6.7415 49.0154 6.62652 49.5974C6.51153 50.1795 6.91466 50.7351 7.52814 50.8434Z" fill="white"/>
<path d="M6.82525 41.9145C6.61219 42.4688 4.93135 43.7114 4.93135 43.7114C4.93135 43.7114 4.48629 41.7406 4.69935 41.1863C4.91242 40.632 5.56107 40.3457 6.1475 40.5467C6.73394 40.7477 7.03831 41.3609 6.82525 41.9145Z" fill="white"/>
<path d="M10.1719 45.8703C9.79309 46.3393 7.79639 47.0499 7.79639 47.0499C7.79639 47.0499 7.9993 45.0432 8.37538 44.5749C8.56535 44.3476 8.83401 44.2005 9.12768 44.1629C9.42135 44.1252 9.71841 44.1998 9.95948 44.3718C10.0765 44.4525 10.1756 44.5566 10.2503 44.6776C10.3251 44.7985 10.3741 44.9336 10.394 45.0745C10.414 45.2153 10.4045 45.3587 10.3663 45.4957C10.3281 45.6326 10.2619 45.7602 10.1719 45.8703Z" fill="white"/>
<path d="M12.8629 50.1322C12.5734 50.6547 10.733 51.674 10.733 51.674C10.733 51.674 10.5713 49.6646 10.8608 49.1421C11.1503 48.6196 11.8328 48.4179 12.3861 48.6913C12.9394 48.9647 13.1518 49.6097 12.8629 50.1322Z" fill="white"/>
<path opacity="0.25" d="M2.14072 38.8035C2.41128 39.3334 4.21927 40.4061 4.21927 40.4061C4.21927 40.4061 4.44654 38.4021 4.17395 37.8715C3.90137 37.3409 3.227 37.1196 2.66425 37.3767C2.10149 37.6339 1.86814 38.2728 2.14072 38.8035Z" fill="black"/>
<path opacity="0.25" d="M1.96831 42.5108C2.50266 42.816 4.636 42.7889 4.636 42.7889C4.636 42.7889 3.67349 40.99 3.14117 40.6847C2.60885 40.3795 1.91285 40.5406 1.58953 41.0448C1.26622 41.549 1.43464 42.2055 1.96831 42.5108Z" fill="black"/>
<path opacity="0.25" d="M4.62242 47.4987C5.24605 47.5075 7.07298 46.4666 7.07298 46.4666C7.07298 46.4666 5.28122 45.3729 4.65692 45.3634C4.03261 45.3539 3.51923 45.825 3.50705 46.4145C3.49488 47.004 3.99811 47.4879 4.62242 47.4987Z" fill="black"/>
<path opacity="0.25" d="M7.52814 50.8434C8.14095 50.9524 10.1282 50.2174 10.1282 50.2174C10.1282 50.2174 8.55761 48.8516 7.94548 48.7447C7.33334 48.6377 6.7415 49.0154 6.62652 49.5974C6.51153 50.1795 6.91466 50.7351 7.52814 50.8434Z" fill="black"/>
<path opacity="0.25" d="M6.82525 41.9145C6.61219 42.4688 4.93135 43.7114 4.93135 43.7114C4.93135 43.7114 4.48629 41.7406 4.69935 41.1863C4.91242 40.632 5.56107 40.3457 6.1475 40.5467C6.73394 40.7477 7.03831 41.3609 6.82525 41.9145Z" fill="black"/>
<path opacity="0.25" d="M10.1719 45.8703C9.79309 46.3393 7.79639 47.0499 7.79639 47.0499C7.79639 47.0499 7.9993 45.0432 8.37538 44.5749C8.56535 44.3476 8.83401 44.2005 9.12768 44.1629C9.42135 44.1252 9.71841 44.1998 9.95948 44.3718C10.0765 44.4525 10.1756 44.5566 10.2503 44.6776C10.3251 44.7985 10.3741 44.9336 10.394 45.0745C10.414 45.2153 10.4045 45.3587 10.3663 45.4957C10.3281 45.6326 10.2619 45.7602 10.1719 45.8703Z" fill="black"/>
<path opacity="0.25" d="M12.8629 50.1322C12.5734 50.6547 10.733 51.674 10.733 51.674C10.733 51.674 10.5713 49.6646 10.8608 49.1421C11.1503 48.6196 11.8328 48.4179 12.3861 48.6913C12.9394 48.9647 13.1518 49.6097 12.8629 50.1322Z" fill="black"/>
<path d="M11.3536 53.9567C11.3536 53.9567 12.6773 49.0999 10.7685 45.6184C9.96767 44.1579 9.65856 42.4984 9.94535 40.8754C10.083 40.1037 10.2948 39.3472 10.5778 38.6162" stroke="#535461" stroke-width="2" stroke-miterlimit="10"/>
<path d="M9.38648 36.4121C9.40812 37.001 10.5992 38.6733 10.5992 38.6733C10.5992 38.6733 11.6666 36.9279 11.6449 36.3384C11.6233 35.7489 11.1005 35.288 10.4768 35.3083C9.85319 35.3286 9.36416 35.8226 9.38648 36.4121Z" fill="white"/>
<path d="M7.63973 39.7413C7.99687 40.2246 9.9584 41.0164 9.9584 41.0164C9.9584 41.0164 9.85018 39.0036 9.49304 38.5197C9.31241 38.2853 9.04997 38.1278 8.75825 38.0788C8.46653 38.0297 8.16706 38.0927 7.91976 38.2551C7.79958 38.3306 7.69629 38.4302 7.61637 38.5475C7.53645 38.6649 7.48162 38.7975 7.45533 38.937C7.42904 39.0766 7.43185 39.22 7.46358 39.3585C7.49531 39.4969 7.55528 39.6272 7.63973 39.7413Z" fill="white"/>
<path d="M7.92293 45.3152C8.48975 45.5622 10.6068 45.3105 10.6068 45.3105C10.6068 45.3105 9.43737 43.6239 8.87055 43.3768C8.30374 43.1298 7.63276 43.3633 7.371 43.8987C7.10923 44.434 7.35679 45.0682 7.92293 45.3152Z" fill="white"/>
<path d="M9.14454 49.4863C9.65927 49.8206 11.7906 49.9093 11.7906 49.9093C11.7906 49.9093 10.9397 48.0609 10.4256 47.7272C10.1779 47.5658 9.87829 47.5039 9.58691 47.5541C9.29553 47.6043 9.03387 47.7629 8.85437 47.998C8.77003 48.1128 8.71041 48.2438 8.67925 48.3829C8.6481 48.5219 8.64609 48.6659 8.67336 48.8058C8.70063 48.9456 8.75657 49.0783 8.83767 49.1954C8.91877 49.3125 9.02326 49.4116 9.14454 49.4863Z" fill="white"/>
<path d="M12.3361 41.0524C11.9033 41.4774 9.8335 41.9708 9.8335 41.9708C9.8335 41.9708 10.2725 39.9979 10.7047 39.5729C10.9186 39.3678 11.2018 39.2508 11.498 39.2453C11.7942 39.2398 12.0816 39.3461 12.303 39.5431C12.4094 39.6369 12.4952 39.7517 12.555 39.8804C12.6148 40.009 12.6472 40.1487 12.6503 40.2905C12.6535 40.4323 12.6271 40.5733 12.5731 40.7044C12.519 40.8355 12.4383 40.954 12.3361 41.0524Z" fill="white"/>
<path d="M13.6933 45.9511C13.1461 46.2347 11.0161 46.1203 11.0161 46.1203C11.0161 46.1203 12.0598 44.3606 12.607 44.079C13.1542 43.7975 13.8414 43.985 14.141 44.5021C14.4407 45.0191 14.2432 45.6675 13.6933 45.9511Z" fill="white"/>
<path d="M14.3291 50.8767C13.84 51.2436 11.7202 51.471 11.7202 51.471C11.7202 51.471 12.4345 49.5712 12.9235 49.2043C13.1612 49.0278 13.4567 48.9475 13.751 48.9795C14.0453 49.0115 14.3167 49.1534 14.511 49.3769C14.6029 49.4851 14.6714 49.611 14.7122 49.747C14.753 49.8829 14.7652 50.0258 14.7481 50.1667C14.731 50.3076 14.685 50.4434 14.6129 50.5656C14.5407 50.6878 14.4441 50.7937 14.3291 50.8767Z" fill="white"/>
<path d="M67.113 25.5916C67.1536 25.4806 66.8492 24.8654 66.8492 24.8349C66.8492 24.8045 66.5347 24.4613 66.5347 24.2698C66.5347 24.0783 66.118 23.6647 66.118 23.6647C66.118 23.6647 65.56 23.4326 65.4991 22.9284C65.4382 22.4242 64.8302 22.4133 64.8288 22.4133C64.8288 22.4133 64.8288 22.3673 64.8329 22.2976C64.8329 22.1406 64.8281 21.8604 64.7578 21.7074C64.6854 21.5682 64.5613 21.463 64.4121 21.4144C64.4121 21.4144 64.3513 21.0211 64.2295 20.9C64.1615 20.8289 64.1127 20.7416 64.0877 20.6464C64.0627 20.5512 64.0624 20.4512 64.0868 20.3558C64.1477 20.1643 64.0056 19.679 63.7107 19.6114C63.4158 19.5437 63.0817 19.43 63.0817 19.43C63.0817 19.43 63.0485 19.4361 63.0005 19.4428L62.9599 19.43C62.8893 19.443 62.8179 19.4518 62.7462 19.4564C62.684 19.4586 62.623 19.4384 62.5744 19.3995C62.4723 19.2885 61.6498 19.0767 61.4976 19.0767C61.3454 19.0767 60.9084 18.8736 60.9084 18.8736L60.4728 18.5407C60.3504 18.4473 60.1238 18.0669 60.0907 18.0134L60.0866 18.006C60.0492 17.92 60.0185 17.8313 59.9946 17.7407C60.1431 17.5853 60.2701 17.4107 60.3721 17.2216C60.3829 17.2019 60.3924 17.1816 60.4018 17.162C60.4248 17.1616 60.4475 17.158 60.4695 17.1512C60.4783 17.1512 60.4871 17.1444 60.4958 17.141C60.5988 17.0868 60.6763 16.9941 60.7116 16.8832C60.7191 16.8615 60.7258 16.8392 60.7312 16.8155C60.7312 16.808 60.7312 16.7999 60.736 16.7925C60.7407 16.785 60.7427 16.762 60.7454 16.7464C60.7481 16.7309 60.7488 16.7288 60.7502 16.7207C60.7515 16.7126 60.7549 16.6903 60.7569 16.6747C60.759 16.6591 60.7569 16.6578 60.7569 16.6497C60.7569 16.63 60.7617 16.6111 60.7644 16.5921C60.7712 16.5206 60.7818 16.4494 60.7962 16.3789C60.857 16.1082 61.0214 15.874 61.1384 15.6209C61.1553 15.585 61.1709 15.5478 61.1851 15.5106C61.1993 15.4734 61.2135 15.4294 61.225 15.3881L61.2351 15.3502C61.2426 15.3204 61.2493 15.29 61.2554 15.2595C61.2554 15.246 61.2608 15.2324 61.2629 15.2189C61.2696 15.1769 61.2757 15.135 61.2791 15.0923C61.301 14.8506 61.2665 14.6071 61.1783 14.381C61.1019 14.1915 60.9889 14.0209 60.9118 13.8314C60.7948 13.5445 60.7644 13.2223 60.6217 12.9462C60.3829 12.4873 59.8201 12.2579 59.3575 12.4305C59.1363 12.5123 58.9449 12.6721 58.721 12.7438C58.4207 12.8392 58.1001 12.7675 57.7896 12.7242C57.4791 12.6809 57.1355 12.6775 56.8859 12.8805C56.5985 13.114 56.5193 13.5533 56.2495 13.8098C56.1365 13.9174 55.9951 13.9864 55.8754 14.0859C55.7914 14.1533 55.7267 14.2418 55.6881 14.3424C55.6881 14.3499 55.6833 14.3566 55.6813 14.3641C55.6793 14.3715 55.6766 14.381 55.6745 14.3898C55.6725 14.3986 55.6705 14.4101 55.6691 14.4203C55.6678 14.4304 55.6691 14.4345 55.6691 14.4412C55.6678 14.4593 55.6678 14.4774 55.6691 14.4954C55.6711 14.5125 55.674 14.5294 55.6779 14.5461C55.6779 14.5509 55.6779 14.5556 55.6779 14.5604C55.6779 14.5651 55.686 14.5881 55.6908 14.6023C55.6905 14.605 55.6905 14.6077 55.6908 14.6104C55.6962 14.626 55.7023 14.6409 55.7084 14.6565L55.7185 14.6795L55.7266 14.6984C55.7663 14.7729 55.7978 14.8514 55.8206 14.9326C55.8333 14.984 55.8302 15.038 55.8118 15.0876C55.7843 15.1438 55.7459 15.1939 55.6989 15.2351C55.4969 15.4454 55.3409 15.6955 55.241 15.9695C55.2295 16.0006 55.218 16.0317 55.2078 16.0642L55.222 16.0676C55.251 16.0765 55.2806 16.083 55.3106 16.0872C55.3275 16.0872 55.3445 16.0913 55.362 16.0926C55.4314 16.0963 55.501 16.0908 55.569 16.0764C55.5859 16.073 55.6035 16.069 55.6204 16.0642C55.6901 16.045 55.7579 16.0198 55.8233 15.9891C55.8233 16.0094 55.8233 16.0304 55.8233 16.0507C55.8233 16.071 55.8233 16.0737 55.8233 16.0852C55.8241 16.5314 55.9491 16.9686 56.1843 17.3477C56.4196 17.7268 56.7558 18.0328 57.1552 18.2314C57.1552 18.253 57.1612 18.2753 57.1639 18.299C57.1667 18.3227 57.1687 18.3356 57.1707 18.3539L57.1437 18.3275C57.1437 18.3275 56.9604 18.2368 56.7879 18.4987C56.6154 18.7606 56.2907 18.8824 56.2907 18.8824C56.2907 18.8824 54.4428 19.1748 54.3718 19.4171L53.5087 19.4672C53.5087 19.4672 53.2037 19.5078 53.1705 20.144C53.1374 20.7802 52.9778 20.8404 52.9778 20.8404C52.9778 20.8404 52.6227 21.4658 52.6531 21.788C52.6835 22.1101 52.3825 22.2726 52.3825 22.2726L52.342 22.8472C52.342 22.8472 52.0038 22.7971 51.9152 23.1903C51.8265 23.5835 51.6615 23.7656 51.6615 23.7656C51.6615 23.7656 51.1028 24.2299 51.0724 24.6231L50.7274 24.8349C50.7274 24.8349 49.9252 24.6536 49.7426 24.3307L49.6864 24.2779C49.6846 24.2754 49.683 24.2727 49.6817 24.2698C49.6816 24.2712 49.6816 24.2725 49.6817 24.2739C49.5613 24.1602 49.307 23.9233 49.3435 23.9774C49.3672 24.0282 49.3729 24.0854 49.3598 24.1399L49.3002 24.0722L49.1406 23.8949C49.1406 23.8949 47.844 22.6766 47.0823 22.5832C47.0722 22.5636 47.0235 22.372 46.8936 22.4918C46.7858 22.5905 46.6995 22.7105 46.6402 22.8441C46.581 22.9778 46.55 23.1223 46.5493 23.2685C46.5486 23.4148 46.5782 23.5596 46.6362 23.6938C46.6941 23.828 46.7793 23.9488 46.8862 24.0485L48.1003 25.1835L48.1314 25.2065L48.3925 25.5449C48.3485 25.6505 48.3113 25.7527 48.2809 25.8461C48.2809 25.8461 48.2809 25.8522 48.2775 25.8549C48.2714 25.8752 48.2647 25.8941 48.2586 25.9131L48.2525 25.9334C48.2471 25.9524 48.241 25.9713 48.2356 25.9889C48.2302 26.0065 48.2295 26.0112 48.2261 26.0221C48.2227 26.0329 48.2261 26.0349 48.2207 26.041C48.1923 26.1425 48.1734 26.2204 48.1639 26.2637L48.0963 26.2427L48.1639 26.2711C48.1639 26.2745 48.1639 26.2786 48.1639 26.282L48.1598 26.3029L48.2221 26.33C48.5778 26.485 50.3534 27.264 50.4447 27.3824C50.5461 27.5131 51.2158 27.8968 51.8252 27.574C52.4346 27.2511 52.5692 26.7564 52.5692 26.7564C52.5692 26.7564 53.1577 25.9395 53.178 25.8183C53.1983 25.6972 53.6555 25.5557 53.6555 25.5557C53.6555 25.5557 53.6961 26.9094 53.4627 27.4021C53.2294 27.8948 52.7924 30.0863 52.7924 30.0863C52.8209 30.0806 52.85 30.0788 52.879 30.0809C52.8628 30.1601 52.8533 30.2074 52.8533 30.2074C52.8889 30.201 52.9253 30.201 52.9609 30.2074C52.9284 30.4565 52.7417 31.6125 52.7417 31.6125C52.7417 31.6125 52.6808 32.137 52.5794 32.3184C52.4779 32.4998 52.4678 33.4487 52.4678 33.4487L52.3054 34.1343C52.3239 34.1747 52.3445 34.2143 52.367 34.2527C52.367 34.2527 52.5415 34.6398 52.8344 34.8571C52.821 34.9649 52.7935 35.0705 52.7525 35.1711C52.689 35.3241 52.6612 35.4897 52.6714 35.655C52.6714 35.655 52.4989 36.432 52.5192 36.654C52.5395 36.876 52.4076 37.4208 52.4076 37.4208L52.2189 39.171C52.2189 39.171 52.0971 40.6945 52.158 41.1087C52.2189 41.5229 52.1167 42.0867 52.1167 42.0867C52.1167 42.0867 52.2385 43.2874 52.208 43.4187C52.1776 43.55 52.0254 44.1144 52.1167 44.4278C52.208 44.7412 52.158 45.598 52.158 45.598C52.158 45.598 52.2189 46.7276 52.2892 47.091C52.3595 47.4545 52.2689 47.9188 52.2689 47.9188C52.2689 47.9188 52.2013 48.6951 52.1675 48.6951C52.1336 48.6951 51.8732 49.2297 52.411 49.7549C52.9487 50.2801 52.6139 50.1982 52.6139 50.1982C52.6139 50.1982 52.1877 49.9864 52.2378 50.4202C52.2865 50.8331 52.3535 50.7255 52.3595 50.714L52.2581 51.0456L52.3257 51.0558L52.2669 51.1234C52.206 51.2004 52.1381 51.2716 52.064 51.3359C51.9415 51.4266 51.9287 51.6283 51.9287 51.6283C51.9287 51.6283 51.1779 52.4459 50.4771 52.8594C50.1085 53.0774 49.7906 53.2615 49.652 53.4137C49.5268 53.5491 49.5471 53.6615 49.8068 53.7474C50.3554 53.9288 51.3193 54.0181 52.0099 53.788C52.4215 53.6504 52.7917 53.4108 53.086 53.0916C53.086 53.0916 53.5229 52.8696 53.9497 52.9501C54.3765 53.0307 55.2288 52.4764 55.2288 52.4764L55.2132 52.3329L55.1679 51.9207C55.1392 51.886 55.1181 51.8457 55.1059 51.8023C55.0937 51.759 55.0906 51.7135 55.0969 51.6689C55.1019 51.5469 55.0899 51.4248 55.061 51.3062C55.0543 51.2662 55.0462 51.2263 55.0387 51.1891L55.1165 51.1749C55.1165 51.1749 55.0157 50.6598 55.1984 50.559C55.381 50.4581 55.3296 49.1377 55.3296 49.1377C55.3296 49.1377 55.0969 48.8352 54.9745 48.7851C54.852 48.735 54.9643 48.1083 54.9853 48.0277C55.0063 47.9472 55.1679 46.3831 55.1679 46.3831C55.1679 46.3831 55.107 45.889 55.1882 45.6772C55.2694 45.4653 55.0908 44.6532 55.0908 44.6532C55.0908 44.6532 55.0299 44.5523 55.1422 44.4312C55.2545 44.31 55.2099 43.2305 55.2099 43.2305C55.2099 43.2305 55.2004 42.6857 55.2004 42.5442C55.2004 42.4028 55.3221 41.8884 55.4337 41.7172C55.5453 41.546 55.4743 41.0106 55.4743 41.0106L55.4804 40.9707C55.4804 40.9551 55.4858 40.9362 55.4899 40.9131L55.4987 40.8597C55.5482 40.5625 55.6153 40.2684 55.6996 39.9792C55.8348 39.5555 55.9836 38.809 55.9836 38.809L56.9306 36.3454L56.9414 36.3163C56.9414 36.3163 57.3777 37.1237 57.3777 37.8729C57.3777 37.8729 57.4893 38.7711 57.4589 39.0133C57.4284 39.2556 57.5488 40.3893 57.5488 40.3893C57.5488 40.3893 57.6807 42.0238 57.6807 42.0948C57.6807 42.1659 57.843 43.4268 57.9452 43.6183C58.0473 43.8099 57.843 44.3953 57.7822 44.4555C57.7213 44.5158 57.8025 45.9993 57.8025 45.9993C57.8025 45.9993 57.6503 47.1695 57.6198 47.4118C57.5894 47.6541 57.4676 48.5827 57.5691 48.9455C57.6706 49.3082 57.63 49.359 57.63 49.359C57.63 49.359 57.9959 49.7326 57.7822 49.7651C57.7045 49.782 57.6313 49.8154 57.5675 49.8629C57.5038 49.9105 57.4509 49.9711 57.4125 50.0408C57.374 50.1105 57.3509 50.1876 57.3447 50.2669C57.3385 50.3462 57.3493 50.426 57.3763 50.5008C57.5028 50.8707 57.6521 51.2323 57.8234 51.5837C57.8234 51.5837 57.8863 51.5694 57.9912 51.5485V51.6683L58.0033 52.2693C58.0033 52.2693 58.071 52.8445 58.0338 52.9758C58.004 53.072 57.9661 53.5241 57.9438 53.7603C57.9364 53.8462 57.9323 53.9038 57.9323 53.9038C57.9323 53.9038 57.9323 54.4384 59.0592 54.2773C60.1861 54.1163 60.389 53.6723 60.389 53.6723C60.389 53.6723 60.389 53.6513 60.3971 53.6168C60.414 53.5146 60.4505 53.298 60.4803 53.1775C60.5209 53.0158 60.1556 52.2896 60.1556 52.2896C60.1556 52.2896 60.0947 51.7955 59.9926 51.6845C59.9508 51.6205 59.9231 51.5483 59.9114 51.4727C59.902 51.4321 59.8939 51.3894 59.8871 51.3481C59.9123 51.3514 59.9374 51.3559 59.9622 51.3617C59.9622 51.3617 59.9013 51.0084 60.1353 50.8974C60.3694 50.7864 60.3078 50.5549 60.2774 50.4534C60.2469 50.3519 60.3687 49.7874 60.3687 49.7874C60.3523 49.7313 60.3513 49.6719 60.3655 49.6153C60.3798 49.5587 60.4089 49.5069 60.4498 49.4653C60.5926 49.3231 60.7035 48.335 60.7035 48.335L60.7238 44.5212C60.7238 44.5212 60.7955 43.8444 60.7143 43.5737C60.6332 43.3029 60.5513 42.7771 60.6629 42.6356C60.7745 42.4942 60.6731 41.839 60.6731 41.839C60.6731 41.839 60.6731 40.4563 60.8259 40.1138C60.9788 39.7714 60.9274 37.6015 60.9274 37.6015L60.9673 36.1802C60.9673 36.1802 61.2994 35.8662 61.2209 34.229C61.5747 34.2067 61.9738 34.1938 62.0326 34.2425C62.1442 34.3339 62.8652 34.7975 63.2914 34.5051C63.3827 34.4645 63.7987 34.1119 63.7987 34.1119L63.6201 31.0866C63.7317 31.2551 63.7993 31.3675 63.7993 31.3675C63.7993 30.9438 64.9972 29.5712 64.9972 29.5712C64.9972 29.5712 66.1139 28.129 66.3574 27.9571C66.6009 27.7851 67.0785 26.8775 67.0785 26.8775C67.149 26.7044 67.2306 26.536 67.3227 26.3733C67.4383 26.1872 67.0724 25.7026 67.113 25.5916ZM64.4926 26.6501C64.1883 26.6806 63.5457 27.377 63.5382 27.53C63.5335 27.6098 63.4659 27.7168 63.403 27.8007C63.3982 27.7398 63.3928 27.6775 63.3881 27.6146C63.3164 26.7232 63.2386 25.637 63.2738 25.5314C63.3353 25.35 63.3144 24.5331 63.3144 24.5331L63.3252 24.5175C63.5281 25.1503 64.1659 25.8969 64.1659 25.8969C64.1659 25.8969 64.2775 26.2197 64.4094 26.2298C64.5413 26.24 64.4926 26.6501 64.4926 26.6501Z" fill="url(#paint0_linear_0:3713)"/>
<path d="M48.2139 26.4252C48.2139 26.4252 48.5839 24.4828 49.775 24.4727L50.6455 26.2648L50.0651 26.6655C50.0651 26.6655 48.8044 26.7054 48.2139 26.4252Z" fill="#65617D"/>
<path opacity="0.1" d="M50.6455 26.2628L50.0651 26.6635C50.0651 26.6635 49.1777 26.6919 48.5433 26.5356C48.4301 26.5087 48.3198 26.4711 48.2139 26.4232C48.2139 26.4232 48.2139 26.4124 48.2206 26.3921C48.2206 26.3921 48.2206 26.3873 48.2206 26.3846C48.2753 26.1409 48.3506 25.9022 48.4459 25.6713C48.4831 25.584 48.5243 25.494 48.569 25.4039C48.7435 25.0655 48.9883 24.7393 49.3238 24.5762C49.4479 24.5153 49.5829 24.4801 49.7209 24.4727H49.756H49.7736L49.7926 24.5126L50.0868 25.1177L50.6455 26.2628Z" fill="black"/>
<path d="M60.5294 34.3366C60.5294 34.3366 61.7807 34.2168 61.8903 34.3068C61.9998 34.3968 62.7107 34.857 63.1314 34.5667C63.5522 34.2763 63.2715 33.2652 63.2715 33.2252C63.2715 33.1853 63.2316 31.7532 63.2316 31.7532L62.4808 30.742L61.5406 28.9702L59.6196 28.7793L59.6697 31.5935L59.6595 33.0351L60.5294 34.3366Z" fill="#65617D"/>
<path opacity="0.1" d="M60.5294 34.3366C60.5294 34.3366 61.7807 34.2168 61.8903 34.3068C61.9998 34.3968 62.7107 34.857 63.1314 34.5667C63.5522 34.2763 63.2715 33.2652 63.2715 33.2252C63.2715 33.1853 63.2316 31.7532 63.2316 31.7532L62.4808 30.742L61.5406 28.9702L59.6196 28.7793L59.6697 31.5935L59.6595 33.0351L60.5294 34.3366Z" fill="black"/>
<path d="M49.524 24.4216C49.524 24.4216 49.4239 25.6432 48.6636 25.6629C48.6636 25.6629 48.4479 25.5329 48.1577 25.3163C47.4894 24.8162 46.4295 23.8544 46.7224 22.9597C47.1424 21.6785 49.1838 24.0426 49.1838 24.0426L49.34 24.2186L49.524 24.4216Z" fill="#FBBEBE"/>
<path opacity="0.1" d="M49.5248 24.4228C49.5248 24.4228 49.4247 25.6444 48.6644 25.664C48.6644 25.664 48.4487 25.5341 48.1585 25.3175L48.0942 25.2343C48.2233 25.3016 48.3655 25.3399 48.5109 25.3466C48.6252 25.3512 48.7383 25.3208 48.8349 25.2595C48.9316 25.1982 49.0073 25.1089 49.052 25.0035C49.132 24.8464 49.2022 24.6846 49.2624 24.5189C49.2994 24.4223 49.3257 24.322 49.3408 24.2197L49.5248 24.4228Z" fill="black"/>
<path d="M49.1933 26.6329L49.0222 26.4122L48.4459 25.6678L48.1523 25.2881C48.2813 25.3557 48.4235 25.3941 48.569 25.4004C48.7604 25.4052 48.9748 25.3327 49.1101 25.0579C49.1899 24.9006 49.2602 24.7385 49.3205 24.5727C49.4152 24.302 49.4138 24.1666 49.38 24.1172C49.3462 24.0678 49.5924 24.2986 49.7107 24.4109L49.7148 24.415L49.7703 24.4671L49.7906 24.5077L50.0807 25.0877C50.0807 25.0877 50.0807 25.0959 50.0807 25.1121C50.1091 25.2982 50.2072 26.4671 49.1933 26.6329Z" fill="#E7EFFD"/>
<path d="M55.1886 52.4068C55.1886 52.4068 54.3479 52.9577 53.9278 52.8805C53.5078 52.8034 53.0769 53.0213 53.0769 53.0213C52.7873 53.3378 52.4221 53.5755 52.0157 53.7123C51.3393 53.9424 50.3856 53.8517 49.8451 53.6717C49.5895 53.5864 49.5685 53.4768 49.6916 53.3408C49.8269 53.1892 50.1421 53.0071 50.5033 52.7905C51.1939 52.3804 51.9338 51.5723 51.9338 51.5723C51.9338 51.5723 51.944 51.3692 52.0644 51.2826C52.1385 51.2187 52.2064 51.148 52.2673 51.0714C52.3748 50.9442 52.4756 50.8115 52.4756 50.8115L54.9485 50.8833C54.9485 50.8833 54.9904 51.0613 55.0236 51.2433C55.0518 51.3614 55.0634 51.4828 55.0581 51.6041C55.0517 51.6481 55.0545 51.693 55.0661 51.7359C55.0777 51.7789 55.098 51.819 55.1257 51.8538L55.1704 52.2599L55.1886 52.4068Z" fill="#65617D"/>
<path d="M60.3606 53.0989C60.3308 53.2187 60.2929 53.4333 60.2787 53.5341L60.2699 53.5896C60.2699 53.5896 60.067 54.0302 58.9598 54.1906C57.8525 54.351 57.8491 53.8197 57.8491 53.8197C57.8491 53.8197 57.8532 53.7629 57.8599 53.6769C57.8796 53.4427 57.9195 52.994 57.9492 52.8986C57.9885 52.7686 57.9188 52.1974 57.9188 52.1974L57.9073 51.6012L57.8985 51.1869L59.7403 50.9961C59.7517 51.1339 59.7715 51.2709 59.7998 51.4062C59.8111 51.4814 59.8386 51.5532 59.8803 51.6167C59.9804 51.727 60.04 52.2177 60.04 52.2177C60.04 52.2177 60.4005 52.9385 60.3606 53.0989Z" fill="#65617D"/>
<path opacity="0.1" d="M54.9494 50.8852C54.9494 50.8852 54.9913 51.0632 55.0244 51.2453C54.7573 51.2947 53.5898 51.4971 53.2983 51.3556C52.9675 51.1952 52.2573 51.1052 52.2573 51.1052L52.2688 51.0646C52.3764 50.9373 52.4772 50.8047 52.4772 50.8047L54.9494 50.8852Z" fill="black"/>
<path opacity="0.1" d="M59.7996 51.4062C59.3329 51.3271 58.3116 51.5186 57.9058 51.6012L57.897 51.187L59.7388 50.9961C59.7506 51.1339 59.7709 51.2709 59.7996 51.4062Z" fill="black"/>
<path d="M60.8402 36.2277L60.8003 37.6395C60.8003 37.6395 60.8503 39.7925 60.7002 40.1329C60.55 40.4733 60.55 41.8452 60.55 41.8452C60.55 41.8452 60.6501 42.4956 60.5398 42.6357C60.4296 42.7758 60.5101 43.2963 60.5899 43.567C60.6697 43.8377 60.6 44.5084 60.6 44.5084L60.5798 48.2931C60.5798 48.2931 60.4702 49.2738 60.3295 49.4146C60.2891 49.4562 60.2605 49.5077 60.2465 49.5639C60.2324 49.6201 60.2336 49.6791 60.2497 49.7347C60.2497 49.7347 60.13 50.2951 60.1597 50.396C60.1895 50.4968 60.2497 50.7262 60.0197 50.8359C59.7897 50.9455 59.8492 51.2968 59.8492 51.2968C59.2993 51.1662 57.7382 51.5174 57.7382 51.5174C57.5696 51.1695 57.4225 50.8115 57.2979 50.4454C57.271 50.3713 57.2602 50.2923 57.2663 50.2137C57.2723 50.1351 57.295 50.0587 57.3329 49.9896C57.3708 49.9204 57.423 49.8602 57.486 49.8129C57.549 49.7656 57.6214 49.7322 57.6983 49.7151C57.908 49.6846 57.5482 49.3144 57.5482 49.3144C57.5482 49.3144 57.5881 49.2643 57.488 48.9043C57.3879 48.5442 57.5076 47.6184 57.538 47.3815C57.5685 47.1446 57.7179 45.9798 57.7179 45.9798C57.7179 45.9798 57.6381 44.5084 57.6983 44.4482C57.7585 44.388 57.9581 43.8073 57.8586 43.6171C57.7592 43.4269 57.5975 42.1755 57.5975 42.1051C57.5975 42.0347 57.4684 40.4131 57.4684 40.4131C57.4684 40.4131 57.348 39.2815 57.3784 39.0412C57.4088 38.8009 57.2979 37.9103 57.2979 37.9103C57.2979 37.1658 56.8677 36.3678 56.8677 36.3678L56.8569 36.3969L55.9296 38.8415C55.9296 38.8415 55.7794 39.582 55.6495 40.0023C55.5674 40.2881 55.5021 40.5785 55.4541 40.872L55.4453 40.9254C55.4453 40.9478 55.4385 40.9667 55.4365 40.9816L55.4304 41.0222C55.4304 41.0222 55.498 41.5528 55.3898 41.7234C55.2816 41.8939 55.1598 42.4042 55.1598 42.5443C55.1598 42.6844 55.17 43.2252 55.17 43.2252C55.17 43.2252 55.2099 44.2966 55.1023 44.4171C54.9948 44.5375 55.0516 44.637 55.0516 44.637C55.0516 44.637 55.2315 45.4492 55.1517 45.6583C55.0719 45.8675 55.1321 46.3588 55.1321 46.3588C55.1321 46.3588 54.9718 47.9114 54.9522 47.9913C54.9326 48.0711 54.8216 48.6924 54.942 48.7425C55.0624 48.7926 55.2917 49.0924 55.2917 49.0924C55.2917 49.0924 55.3425 50.4048 55.1619 50.5043C54.9813 50.6037 55.0814 51.1134 55.0814 51.1134C55.0814 51.1134 53.6312 51.3936 53.3011 51.2332C52.971 51.0728 52.2601 50.9828 52.2601 50.9828L52.3596 50.6538C52.3535 50.6653 52.2872 50.7723 52.2399 50.3621C52.1905 49.9317 52.6105 50.1415 52.6105 50.1415C52.6105 50.1415 52.9406 50.222 52.4076 49.7016C51.8746 49.1811 52.137 48.6498 52.1675 48.6498C52.1979 48.6498 52.2683 47.8796 52.2683 47.8796C52.2683 47.8796 52.3582 47.4187 52.2879 47.058C52.2175 46.6972 52.158 45.5758 52.158 45.5758C52.158 45.5758 52.2081 44.725 52.1181 44.415C52.0281 44.1051 52.1776 43.5433 52.2081 43.4134C52.2385 43.2834 52.1147 42.0949 52.1147 42.0949C52.1147 42.0949 52.2148 41.5345 52.1546 41.1244C52.0944 40.7143 52.2148 39.2016 52.2148 39.2016L52.3947 37.4595C52.3947 37.4595 52.5246 36.9181 52.505 36.6981C52.4854 36.4781 52.6558 35.7073 52.6558 35.7073C52.6456 35.5431 52.6729 35.3788 52.7356 35.2267C52.8358 35.0237 52.8757 34.3658 52.8757 34.3658L53.8368 32.1628L54.3103 30.2204L60.6636 30.1602C60.6636 30.1602 60.6873 30.3287 60.7259 30.6339C60.7644 30.9392 60.8185 31.3926 60.8787 31.9523C60.9342 32.4606 60.9951 33.0582 61.0539 33.7235C61.246 35.8474 60.8402 36.2277 60.8402 36.2277Z" fill="#3F3D56"/>
<path d="M60.2501 18.6923L58.7688 20.2746C58.7688 20.2746 56.8682 19.5132 57.0684 19.2533C57.1455 19.1525 57.136 18.8344 57.0887 18.4838C57.021 17.9288 56.8682 17.2906 56.8682 17.2906C56.8682 17.2906 60.1899 16.7491 59.9119 17.3102C59.8098 17.5133 59.8274 17.7542 59.8909 17.9755C59.9714 18.2322 60.0927 18.4742 60.2501 18.6923Z" fill="#FBBEBE"/>
<path opacity="0.1" d="M59.9099 17.3107C59.8077 17.5137 59.759 17.5354 59.8226 17.7567C59.3884 18.2217 58.8358 18.732 58.1486 18.732C57.7808 18.7326 57.4179 18.6475 57.0887 18.4836C57.021 17.9286 56.8682 17.2904 56.8682 17.2904C56.8682 17.2904 60.1899 16.749 59.9099 17.3107Z" fill="black"/>
<path d="M60.5314 16.2906C60.5209 16.9158 60.2653 17.5118 59.8197 17.9502C59.3742 18.3885 58.7743 18.6342 58.1495 18.6342C57.5246 18.6342 56.9248 18.3885 56.4792 17.9502C56.0337 17.5118 55.7781 16.9158 55.7676 16.2906C55.7676 16.2791 55.7676 16.2676 55.7676 16.2568C55.7721 15.6248 56.0273 15.0204 56.4771 14.5767C56.6998 14.357 56.9636 14.1833 57.2534 14.0656C57.5432 13.9479 57.8533 13.8885 58.1661 13.8907C58.4788 13.8929 58.7881 13.9567 59.0762 14.0786C59.3643 14.2004 59.6256 14.3778 59.8451 14.6006C60.0647 14.8235 60.2383 15.0874 60.3559 15.3774C60.4735 15.6674 60.5329 15.9777 60.5307 16.2906H60.5314Z" fill="#FBBEBE"/>
<path opacity="0.1" d="M60.876 32.0131C60.5608 32.0131 59.5104 32.0246 58.3361 32.0429H58.3219L57.9344 32.0497H57.9222C56.5302 32.072 55.1578 31.7999 54.6079 31.8514C53.4377 31.961 55.0286 30.7685 55.0286 30.7685C55.901 30.9806 56.7984 31.0717 57.6956 31.0392L58.0338 31.0216C59.0971 30.9614 60.1665 30.8612 60.7252 30.6934C60.7624 31.0033 60.8158 31.4534 60.876 32.0131Z" fill="black"/>
<path d="M60.876 31.9509C60.5608 31.9509 59.5104 31.9624 58.3361 31.9807H58.3219L57.9344 31.9875H57.9222C56.5302 32.0098 55.1578 31.7377 54.6079 31.7892C53.4377 31.8995 55.0286 30.7063 55.0286 30.7063C55.901 30.9184 56.7984 31.0095 57.6956 30.977L58.0338 30.9594C59.0971 30.8992 60.1665 30.799 60.7252 30.6318C60.7624 30.9418 60.8158 31.3899 60.876 31.9509Z" fill="#5F5D7E"/>
<path opacity="0.1" d="M57.5081 19.3571L55.667 20.2187L54.2466 31.2121C54.2466 31.2121 55.0867 30.8317 55.5676 31.072C56.0485 31.3122 57.5291 31.0923 57.5291 31.0923C57.5291 31.0923 58.6113 31.032 58.7703 31.1525C58.9292 31.273 60.8103 30.649 60.8103 30.649C60.8103 30.649 61.1485 29.8882 60.8901 29.7691C60.6317 29.65 60.9726 28.469 60.9726 28.469L60.8103 20.5388L60.4897 19.5175L59.6293 18.9971L58.75 19.6976L58.3299 19.7578L57.5081 19.3571Z" fill="black"/>
<path d="M57.5081 19.2348L55.667 20.0957L54.2466 31.0897C54.2466 31.0897 55.0867 30.7093 55.5676 30.9496C56.0485 31.1899 57.5291 30.9692 57.5291 30.9692C57.5291 30.9692 58.6113 30.9097 58.7703 31.0295C58.9292 31.1493 60.8116 30.5286 60.8116 30.5286C60.8116 30.5286 61.1498 29.7679 60.8914 29.6488C60.6331 29.5297 60.9726 28.3452 60.9726 28.3452L60.8103 20.4158L60.4897 19.3952L59.6293 18.874L58.75 19.5752L58.33 19.6354L57.5081 19.2348Z" fill="#E7EFFD"/>
<path opacity="0.1" d="M57.4798 19.7426C57.4798 19.7426 58.0101 20.3734 58.0006 20.504C57.9911 20.6346 57.9702 20.9446 57.9702 20.9446L57.5697 21.7568C57.5697 21.7568 57.3499 22.7679 57.3499 22.9784C57.3499 23.1889 56.9995 25.0088 56.9995 25.0088L56.5781 27.8128L56.0479 31.4879L56.589 32.4185L57.2288 31.877L58.0797 25.3283L58.2596 24.0369C58.2596 24.0369 58.4497 21.7141 58.4497 21.4739C58.4497 21.2336 58.3401 20.6028 58.3401 20.6028C58.3401 20.6028 58.47 20.0018 59.0104 19.8583C59.5509 19.7148 58.9705 19.8279 58.9705 19.8279L58.6601 19.5781L58.3895 19.6878C58.3895 19.6878 57.6401 19.4624 57.4798 19.7426Z" fill="black"/>
<path d="M57.4203 19.6838C57.4203 19.6838 57.9513 20.3146 57.9411 20.4446C57.931 20.5745 57.9107 20.8852 57.9107 20.8852L57.511 21.6973C57.511 21.6973 57.2904 22.7085 57.2904 22.919C57.2904 23.1295 56.9401 24.9494 56.9401 24.9494L56.52 27.7527L55.9897 31.4278L56.5309 32.3591L57.1714 31.8176L58.0216 25.2695L58.2022 23.9788C58.2022 23.9788 58.3923 21.6561 58.3923 21.4158C58.3923 21.1755 58.2827 20.5447 58.2827 20.5447C58.2827 20.5447 58.4126 19.9437 58.953 19.8036C59.4934 19.6635 58.9131 19.7739 58.9131 19.7739L58.6026 19.5234L58.3321 19.6338C58.3321 19.6338 57.5806 19.403 57.4203 19.6838Z" fill="white"/>
<path opacity="0.1" d="M57.0703 18.6348C57.0703 18.6348 56.9899 18.695 56.9702 19.0957C56.9506 19.4963 56.6699 20.3972 56.6699 20.3972C56.6699 20.3972 57.7109 19.6764 58.231 19.7562L57.0703 18.6348Z" fill="black"/>
<path d="M57.0703 18.5117C57.0703 18.5117 56.9899 18.5713 56.9702 18.9719C56.9506 19.3726 56.6699 20.2734 56.6699 20.2734C56.6699 20.2734 57.7109 19.5526 58.231 19.6332L57.0703 18.5117Z" fill="#E7EFFD"/>
<path opacity="0.1" d="M59.9118 18.3135L58.2695 19.7551C58.2695 19.7551 59.6507 20.576 59.8306 20.7764C60.0106 20.9767 60.1905 18.8136 60.1905 18.8136L59.9118 18.3135Z" fill="black"/>
<path d="M59.972 18.1904L58.3311 19.6327C58.3311 19.6327 59.7116 20.4537 59.8928 20.654C60.0741 20.8543 60.2527 18.6913 60.2527 18.6913L59.972 18.1904Z" fill="#E7EFFD"/>
<path opacity="0.1" d="M57.1291 18.6361C57.1291 18.6361 56.9492 18.5461 56.7794 18.8067C56.6544 18.9765 56.4846 19.1082 56.289 19.187C56.289 19.187 54.4675 19.4774 54.3951 19.7177L53.5442 19.7677C53.5442 19.7677 53.2439 19.8077 53.2141 20.4385C53.1844 21.0692 53.0241 21.1295 53.0241 21.1295C53.0241 21.1295 52.6737 21.7501 52.7041 22.0702C52.7346 22.3904 52.4336 22.5514 52.4336 22.5514L53.6842 25.8055C53.6842 25.8055 53.7248 27.147 53.4942 27.6376C53.2635 28.1283 52.834 30.3009 52.834 30.3009C52.834 30.3009 53.0139 30.2609 53.0038 30.3807C52.9936 30.5005 52.79 31.8129 52.79 31.8129C52.79 31.8129 52.7298 32.3333 52.6297 32.514C52.5296 32.6947 52.5195 33.6348 52.5195 33.6348L52.3599 34.3157C52.3599 34.3157 52.74 35.1671 53.3203 35.0466C53.9007 34.9262 54.9511 32.6541 54.9511 32.6541L55.6221 30.2007L56.1422 27.7777L56.2924 26.1358L56.5325 22.5014L56.8829 20.098C56.8829 20.098 57.2698 18.8046 57.1291 18.6361Z" fill="black"/>
<path d="M57.0675 18.5131C57.0675 18.5131 56.8869 18.4231 56.7171 18.683C56.5923 18.8531 56.4225 18.9848 56.2267 19.0634C56.2267 19.0634 54.4059 19.3537 54.3329 19.594L53.482 19.6441C53.482 19.6441 53.1823 19.6847 53.1519 20.3155C53.1214 20.9462 52.9618 21.0058 52.9618 21.0058C52.9618 21.0058 52.6114 21.6271 52.6419 21.9472C52.6723 22.2674 52.3713 22.4278 52.3713 22.4278L53.6226 25.6818C53.6226 25.6818 53.6626 27.0233 53.4326 27.514C53.2026 28.0046 52.7717 30.1779 52.7717 30.1779C52.7717 30.1779 52.9517 30.1373 52.9422 30.2577C52.9327 30.3782 52.7217 31.6892 52.7217 31.6892C52.7217 31.6892 52.6615 32.2103 52.5614 32.3903C52.4613 32.5704 52.4518 33.5118 52.4518 33.5118L52.2915 34.1927C52.2915 34.1927 52.6716 35.0434 53.252 34.9236C53.8323 34.8038 54.8848 32.5304 54.8848 32.5304L55.5551 30.0777L56.0752 27.6547L56.2254 26.0121L56.4655 22.3777L56.8159 19.975C56.8159 19.975 57.2075 18.683 57.0675 18.5131Z" fill="#65617D"/>
<path opacity="0.1" d="M50.6448 26.2636L50.0645 26.6642C50.0645 26.6642 49.1771 26.6926 48.5426 26.5363L48.22 26.3928L48.1523 26.3644L48.22 26.3854C48.5548 26.4849 48.8166 26.4828 49.0215 26.4138C49.8426 26.137 49.752 24.78 49.7202 24.4734C49.7202 24.4423 49.7148 24.4226 49.7135 24.4152C49.7133 24.4138 49.7133 24.4125 49.7135 24.4111L49.7182 24.4193C49.7295 24.4377 49.7422 24.4554 49.7561 24.472C49.7676 24.4849 49.7797 24.4984 49.7926 24.5113L50.0828 25.0913C50.0828 25.0913 50.0828 25.0994 50.0828 25.1157L50.6448 26.2636Z" fill="black"/>
<path d="M52.655 22.3467L52.3743 22.4265L52.3344 22.9971C52.3344 22.9971 52.0044 22.947 51.9144 23.3355C51.8244 23.724 51.6641 23.9067 51.6641 23.9067C51.6641 23.9067 51.1136 24.3669 51.0838 24.7575L50.7456 24.9679C50.7456 24.9679 49.9549 24.7872 49.775 24.4671C49.775 24.4671 50.1355 27.0505 48.2139 26.4197C48.2139 26.4197 50.3655 27.3605 50.4656 27.4911C50.5657 27.6217 51.2258 28.0014 51.8265 27.6813C52.4271 27.3611 52.557 26.8691 52.557 26.8691C52.557 26.8691 53.1373 26.0569 53.1569 25.9378C53.1765 25.8187 53.6304 25.6772 53.6304 25.6772L54.4908 23.5947L52.655 22.3467Z" fill="#65617D"/>
<path opacity="0.1" d="M59.6811 19.5122L59.9712 18.1904C59.9712 18.1904 60.1011 18.6209 60.2316 18.721L60.6618 19.052C60.6618 19.052 61.092 19.2517 61.2422 19.2517C61.3923 19.2517 62.2026 19.4621 62.3027 19.5725C62.4028 19.6828 62.8033 19.6022 62.8033 19.6022C62.8033 19.6022 63.1333 19.7126 63.4235 19.7823C63.7137 19.852 63.8537 20.3332 63.7935 20.5268C63.7691 20.6215 63.7691 20.7209 63.7936 20.8156C63.8181 20.9103 63.8662 20.9972 63.9335 21.0682C64.0539 21.1887 64.1141 21.5792 64.1141 21.5792C64.2607 21.6276 64.3822 21.732 64.4523 21.8695C64.5524 22.0895 64.5199 22.57 64.5199 22.57L63.0319 24.6729C63.0319 24.6729 63.0515 25.485 62.992 25.6644C62.9325 25.8437 63.2017 28.9083 63.2017 28.9083L63.5121 34.1745C63.5121 34.1745 63.1016 34.5251 63.0116 34.5651C62.9216 34.605 62.8317 32.7032 62.8317 32.6328C62.8317 32.5624 60.5205 29.1682 60.5205 29.1682C60.5205 29.1682 60.21 28.6681 60.21 28.5591C60.21 28.4501 59.9198 27.4376 59.9198 27.4376L59.4795 25.485L59.6811 19.5122Z" fill="black"/>
<path d="M64.6458 22.4543C64.6458 22.522 64.6458 22.5694 64.6458 22.5694L63.1577 24.6675C63.1577 24.6675 63.178 25.4796 63.1185 25.6583C63.0833 25.7632 63.1597 26.8407 63.2307 27.7259C63.2808 28.3642 63.3281 28.9022 63.3281 28.9022L63.46 31.1357L63.6379 34.1678C63.6379 34.1678 63.228 34.5184 63.1381 34.5583C63.0481 34.5982 62.9582 32.6964 62.9582 32.626C62.9582 32.5556 60.6462 29.1621 60.6462 29.1621C60.6462 29.1621 60.3358 28.6606 60.3358 28.553C60.3358 28.4454 60.0456 27.4315 60.0456 27.4315L59.606 25.4789L59.8055 19.5116L59.9692 18.1904C59.9692 18.1904 60.2194 18.6216 60.3493 18.721L60.7795 19.0513C60.7795 19.0513 61.2097 19.2544 61.3598 19.2544C61.51 19.2544 62.321 19.4642 62.4211 19.5745C62.5212 19.6848 62.921 19.6043 62.921 19.6043C62.921 19.6043 63.251 19.7146 63.5412 19.7843C63.8314 19.854 63.9721 20.3352 63.9119 20.5288C63.8873 20.6235 63.8873 20.7229 63.9118 20.8177C63.9363 20.9124 63.9845 20.9993 64.0519 21.0702C64.1716 21.19 64.2318 21.5805 64.2318 21.5805C64.3783 21.6294 64.4998 21.7339 64.57 21.8716C64.6417 22.0171 64.6485 22.2953 64.6458 22.4543Z" fill="#65617D"/>
<path opacity="0.1" d="M52.4146 49.1299C52.4639 49.1299 54.5655 49.2097 54.5256 49.5502C54.4857 49.8906 52.4146 49.1299 52.4146 49.1299Z" fill="black"/>
<path opacity="0.1" d="M52.8862 49.7041C52.8862 49.7041 54.2972 49.9342 53.9265 50.1447C53.5559 50.3552 52.8862 49.7041 52.8862 49.7041Z" fill="black"/>
<path opacity="0.1" d="M58.1328 48.9111C58.1328 48.9111 60.4745 49.1142 60.1241 49.372C59.7737 49.6299 58.9431 49.6719 58.9066 49.682C58.8701 49.6922 58.1328 48.9111 58.1328 48.9111Z" fill="black"/>
<path opacity="0.1" d="M57.8491 49.9434C57.8491 49.9434 59.1498 50.1633 59.1897 50.4171C59.2296 50.6709 57.8491 49.9434 57.8491 49.9434Z" fill="black"/>
<path opacity="0.1" d="M58.5703 43.9141C58.5703 43.9141 59.7607 44.1943 59.8311 44.3878L58.5703 43.9141Z" fill="black"/>
<path opacity="0.1" d="M53.9779 44.7754C53.9779 44.7754 53.3576 44.9554 53.9582 45.3168C54.5589 45.6782 53.9779 44.7754 53.9779 44.7754Z" fill="black"/>
<path opacity="0.1" d="M56.728 35.1538C56.7957 35.1538 57.8887 34.7938 58.2688 34.9508C58.5409 35.053 58.8285 35.1078 59.1191 35.1125L56.728 35.1538Z" fill="black"/>
<path opacity="0.1" d="M56.8695 36.2954L56.8587 36.3948L55.9286 38.8395C55.9286 38.8395 55.7785 39.5799 55.6486 40.0002C55.5665 40.286 55.5012 40.5764 55.4531 40.8699L56.279 35.7451L56.8695 36.2954Z" fill="black"/>
<path d="M58.3223 31.9806L57.9348 31.9874H57.9226L57.6953 30.9782L58.0335 30.96L58.3223 31.9806Z" fill="#3F3D56"/>
<path d="M63.0436 30.7609L62.7941 30.964L61.9628 31.6496C61.9628 31.6496 59.7111 32.8516 59.0908 31.7098C58.5443 30.7041 61.097 29.986 61.7118 29.8297C61.795 29.8087 61.8424 29.7979 61.8424 29.7979L63.0436 30.7609Z" fill="#FBBEBE"/>
<path opacity="0.1" d="M53.4263 20.918C53.4263 20.918 53.8666 21.121 53.9674 21.3985C54.0681 21.676 53.4263 20.918 53.4263 20.918Z" fill="black"/>
<path opacity="0.1" d="M52.0674 23.9189C52.0674 23.9189 51.4269 24.7 51.6873 25.0018C51.9477 25.3037 52.0674 23.9189 52.0674 23.9189Z" fill="black"/>
<path opacity="0.1" d="M63.5143 21.3555C63.5143 21.3555 62.9137 21.4157 62.894 21.9362L63.5143 21.3555Z" fill="black"/>
<path opacity="0.1" d="M57.9482 29.5643C58.0078 29.5041 59.389 27.4615 59.7069 27.6422L57.9482 29.5643Z" fill="black"/>
<path opacity="0.1" d="M60.5314 16.2906C60.532 16.6832 60.435 17.0697 60.2493 17.4155L60.2318 17.4121C60.0809 17.3803 60.0025 17.2043 59.8868 17.0947C59.8158 17.027 59.7255 16.9833 59.6284 16.9697C59.5314 16.9561 59.4325 16.9733 59.3457 17.0189C59.2582 17.0715 59.1871 17.1474 59.1402 17.2381C59.0934 17.3288 59.0727 17.4308 59.0805 17.5326C59.0041 17.2118 59.0285 16.8713 58.9541 16.5499C58.8797 16.2284 58.6558 15.9035 58.3487 15.8981C58.2134 15.8981 58.0626 15.9461 57.9665 15.8473C57.909 15.7878 57.8989 15.6937 57.8542 15.6206C57.6351 15.266 56.9675 15.4453 56.6949 15.6274C56.4223 15.8094 56.1064 16.1011 55.7676 16.2568C55.7721 15.6248 56.0273 15.0204 56.4771 14.5767C56.6998 14.357 56.9636 14.1833 57.2534 14.0656C57.5432 13.9479 57.8533 13.8885 58.1661 13.8907C58.4788 13.8929 58.7881 13.9567 59.0762 14.0786C59.3643 14.2004 59.6256 14.3778 59.8451 14.6006C60.0647 14.8235 60.2383 15.0874 60.3559 15.3774C60.4735 15.6674 60.5329 15.9777 60.5307 16.2906H60.5314Z" fill="black"/>
<path d="M57.8547 15.5612C57.898 15.6336 57.9095 15.7277 57.9669 15.7873C58.0623 15.8868 58.2172 15.8353 58.3491 15.838C58.6562 15.8434 58.8801 16.1683 58.9545 16.4898C59.0289 16.8113 59.0045 17.1517 59.081 17.4725C59.0731 17.3706 59.0938 17.2685 59.1408 17.1778C59.1877 17.087 59.2591 17.0112 59.3468 16.9588C59.4336 16.9133 59.5325 16.8961 59.6295 16.9097C59.7266 16.9233 59.8169 16.967 59.8879 17.0346C60.0036 17.1443 60.082 17.3202 60.2329 17.352C60.3837 17.3838 60.5291 17.239 60.5839 17.0813C60.6387 16.9236 60.6346 16.7477 60.6705 16.5825C60.7381 16.2705 60.941 16.014 61.0547 15.7169C61.1887 15.3556 61.1851 14.9576 61.0445 14.5988C60.9694 14.4106 60.8578 14.2414 60.7814 14.054C60.6664 13.7684 60.6367 13.4448 60.496 13.1741C60.2606 12.7186 59.7059 12.4912 59.2494 12.6625C59.0323 12.7437 58.8435 12.902 58.6224 12.9731C58.3268 13.0685 58.0102 12.9968 57.7045 12.9542C57.3988 12.9115 57.0599 12.9075 56.8137 13.1085C56.5303 13.3406 56.4532 13.7765 56.1867 14.031C56.0751 14.1379 55.9364 14.2062 55.8187 14.3017C55.701 14.3971 55.5989 14.5474 55.6158 14.7078C55.6334 14.9149 55.8363 15.103 55.7612 15.2952C55.7342 15.351 55.6965 15.4009 55.6503 15.4421C55.4275 15.6758 55.2617 15.958 55.166 16.2664C55.701 16.4343 56.2807 15.8434 56.7001 15.5639C56.9686 15.3859 57.6355 15.2059 57.8547 15.5612Z" fill="#7C5C5C"/>
<path opacity="0.1" d="M63.0415 30.761L62.7919 30.964C62.572 30.5985 61.6704 29.8676 61.6704 29.8676L61.7096 29.8297C61.7928 29.8087 61.8402 29.7979 61.8402 29.7979L63.0415 30.761Z" fill="black"/>
<path d="M63.2829 30.3875C63.2829 30.3875 63.1929 30.6109 63.1009 30.8031C63.009 30.9953 62.9075 31.1713 62.9028 31.0285C62.8926 30.7483 61.7319 29.8068 61.7319 29.8068L61.8895 29.6539L62.0715 29.4766L63.2829 30.3875Z" fill="#E7EFFD"/>
<path opacity="0.1" d="M63.3236 28.9097L63.4555 31.1431C63.1443 30.6592 62.2907 29.4193 61.7422 29.4593L63.0713 27.929C63.1267 27.8674 63.1777 27.802 63.2242 27.7334C63.2742 28.3716 63.3236 28.9097 63.3236 28.9097Z" fill="black"/>
<path opacity="0.1" d="M63.2825 30.3889C63.2825 30.3889 63.1926 30.6122 63.1006 30.8045C62.7516 30.326 62.272 29.7608 61.8892 29.6539L62.0711 29.4766L63.2825 30.3889Z" fill="black"/>
<path d="M64.284 22.292L64.6445 22.5722C64.6445 22.5722 65.2445 22.5823 65.3047 23.0832C65.3649 23.584 65.9134 23.8141 65.9134 23.8141C65.9134 23.8141 66.3233 24.2243 66.3233 24.4145C66.3233 24.6046 66.6338 24.9451 66.6338 24.9755C66.6338 25.006 66.9341 25.6165 66.8935 25.7261C66.8529 25.8357 67.2141 26.317 67.1039 26.497C67.0135 26.6588 66.9333 26.826 66.8638 26.9978C66.8638 26.9978 66.3937 27.8993 66.1535 28.0692C65.9134 28.2391 64.8123 29.6712 64.8123 29.6712C64.8123 29.6712 63.632 31.0329 63.632 31.4532C63.632 31.4532 62.4821 29.5311 61.8003 29.5812L63.1314 28.0489C63.1314 28.0489 63.3614 27.7992 63.3715 27.6489C63.3817 27.4987 64.0121 26.8076 64.3124 26.7779C64.3124 26.7779 64.3618 26.367 64.2319 26.3569C64.1021 26.3467 63.9918 26.0266 63.9918 26.0266C63.9918 26.0266 63.1125 24.9857 63.101 24.3244C63.0895 23.6632 64.284 22.292 64.284 22.292Z" fill="#65617D"/>
<path opacity="0.1" d="M64.8134 23.2422C64.8134 23.2422 63.9733 23.8635 64.1532 24.0632C64.3331 24.2628 64.8134 23.2422 64.8134 23.2422Z" fill="black"/>
<path opacity="0.1" d="M64.8525 25.8027C64.8525 25.8027 66.4137 25.3018 66.574 25.8027H64.8525Z" fill="black"/>
<path opacity="0.1" d="M55.1886 52.4056C55.1886 52.4056 54.3479 52.9566 53.9278 52.8794C53.5078 52.8023 53.0769 53.0202 53.0769 53.0202C52.7873 53.3366 52.4221 53.5744 52.0157 53.7112C51.3393 53.9413 50.3856 53.8506 49.8451 53.6706C49.5895 53.5853 49.5685 53.4757 49.6916 53.3396C50.2794 53.4567 51.5923 53.6902 51.946 53.5203C52.406 53.2997 53.0668 52.8192 53.0668 52.8192C53.0668 52.8192 53.9278 52.6994 54.0476 52.6994C54.1328 52.6994 54.7977 52.4246 55.1731 52.2676L55.1886 52.4056Z" fill="black"/>
<path opacity="0.1" d="M60.2787 53.5322L60.2699 53.5877C60.2699 53.5877 60.067 54.0283 58.9598 54.1887C57.8525 54.3491 57.8491 53.8178 57.8491 53.8178C57.8491 53.8178 57.8532 53.761 57.8599 53.675C58.2117 53.8084 58.9787 53.9573 60.2787 53.5322Z" fill="black"/>
<path opacity="0.1" d="M53.8405 23.1191C53.8405 23.1191 53.8405 25.402 53.6451 25.6274C53.4496 25.8528 53.8405 23.1191 53.8405 23.1191Z" fill="black"/>
<path opacity="0.1" d="M62.8633 23.8574L63.1535 24.6737C63.1535 24.6737 63.2691 23.8723 62.8633 23.8574Z" fill="black"/>
<g opacity="0.1">
<path opacity="0.1" d="M55.7838 15.0993C55.8569 14.9112 55.6648 14.7271 55.6397 14.5254C55.6143 14.5823 55.6034 14.6446 55.608 14.7068C55.6208 14.8584 55.7324 14.9998 55.7622 15.1406C55.7706 15.1275 55.7778 15.1137 55.7838 15.0993Z" fill="black"/>
<path opacity="0.1" d="M59.1059 17.2526C59.0342 16.9372 59.0552 16.6029 58.9821 16.2868C58.9091 15.9707 58.6839 15.6404 58.3775 15.635C58.2422 15.635 58.0907 15.6838 57.9953 15.5849C57.9371 15.5254 57.9277 15.4306 57.8823 15.3582C57.6632 15.0029 56.9963 15.1829 56.723 15.365C56.3172 15.6357 55.7517 16.2062 55.2268 16.0777C55.2018 16.1379 55.1788 16.1995 55.1592 16.2624C55.6942 16.4303 56.2739 15.8394 56.6932 15.5599C56.9638 15.3785 57.6334 15.1985 57.8526 15.5538C57.8959 15.6262 57.9074 15.7203 57.9649 15.7799C58.0602 15.8793 58.2151 15.8279 58.347 15.8306C58.6541 15.836 58.878 16.1609 58.9524 16.4824C59.0268 16.8039 59.0024 17.1443 59.0789 17.4651C59.0739 17.3932 59.0831 17.321 59.1059 17.2526Z" fill="black"/>
<path opacity="0.1" d="M60.6094 16.8815C60.5553 17.0398 60.4126 17.186 60.2584 17.1522C60.1042 17.1183 60.0291 16.9444 59.9141 16.8341C59.8427 16.7672 59.7524 16.724 59.6555 16.7106C59.5586 16.6971 59.4599 16.714 59.373 16.759C59.2896 16.8087 59.2209 16.8799 59.1742 16.9651C59.1275 17.0503 59.1043 17.1464 59.1072 17.2435C59.1477 17.1213 59.2317 17.0182 59.3432 16.9539C59.43 16.9083 59.5289 16.8911 59.626 16.9047C59.723 16.9183 59.8134 16.962 59.8843 17.0297C60 17.1393 60.0785 17.3153 60.2293 17.3471C60.3801 17.3789 60.5256 17.2341 60.5803 17.0764C60.6088 16.9827 60.6272 16.8863 60.6351 16.7887C60.6286 16.8202 60.62 16.8511 60.6094 16.8815Z" fill="black"/>
<path opacity="0.1" d="M61.0822 15.5174C60.9699 15.8146 60.7657 16.0704 60.698 16.3831C60.6845 16.446 60.6764 16.5103 60.6689 16.5753C60.7366 16.264 60.9395 16.0088 61.0525 15.7124C61.1023 15.579 61.1335 15.4394 61.1451 15.2975C61.1297 15.3723 61.1087 15.4458 61.0822 15.5174Z" fill="black"/>
</g>
<path d="M46.6216 22.7717C46.6352 22.7717 46.6461 22.7607 46.6461 22.7472C46.6461 22.7336 46.6352 22.7227 46.6216 22.7227C46.6081 22.7227 46.5972 22.7336 46.5972 22.7472C46.5972 22.7607 46.6081 22.7717 46.6216 22.7717Z" fill="#E6E8EC"/>
<path opacity="0.1" d="M55.2638 54.2189C58.4891 54.2189 61.1037 53.9519 61.1037 53.6226C61.1037 53.2933 58.4891 53.0264 55.2638 53.0264C52.0385 53.0264 49.4238 53.2933 49.4238 53.6226C49.4238 53.9519 52.0385 54.2189 55.2638 54.2189Z" fill="white"/>
<path d="M33.7869 14.5139L16.0986 25.9966L27.6419 46.8287C27.6958 46.9261 27.7694 47.0112 27.8578 47.0788C27.9463 47.1464 28.0478 47.1948 28.156 47.2212L38.615 49.7741C38.7942 49.8175 38.9829 49.7981 39.1495 49.7191C39.3162 49.6402 39.4508 49.5065 39.5308 49.3403L44.7187 38.5554L50.4045 30.9501L36.9118 14.9775C36.5364 14.5332 36.012 14.2411 35.4368 14.1558C34.8616 14.0704 34.2751 14.1977 33.7869 14.5139Z" fill="#DCDFED"/>
<path opacity="0.1" d="M50.5863 31.04L50.5363 31.1077L47.2057 35.5631L47.1455 35.6436L44.9006 38.6466L40.4634 47.8722L40.339 48.13L39.7127 49.4315C39.6325 49.598 39.4977 49.7319 39.3308 49.8109C39.1639 49.8898 38.9749 49.9091 38.7955 49.8653L28.3364 47.3111C28.2283 47.2848 28.1267 47.2364 28.0382 47.1688C27.9498 47.1012 27.8763 47.016 27.8224 46.9185L26.8166 45.1067L26.636 44.7805L19.3763 31.6735L19.3141 31.5618L16.2798 26.0865L16.6464 25.8482L19.4257 24.0445L19.4899 24.0026L25.3427 20.203L25.7121 19.9634L33.9674 14.6038C34.4555 14.287 35.0424 14.1593 35.6179 14.2445C36.1934 14.3297 36.7181 14.6221 37.0937 15.0667L43.2488 22.3559L43.5194 22.6808L47.9869 27.9693L48.0113 27.9984L50.2576 30.6569L50.5403 30.9919L50.5863 31.04Z" fill="black"/>
<path opacity="0.1" d="M47.8359 27.9071L47.2908 31.6972L47.1264 32.841L47.0324 35.2775L47.025 35.4677L46.5359 48.1984C46.5312 48.3165 46.5006 48.4322 46.4464 48.5371C46.3921 48.6421 46.3155 48.7339 46.2219 48.806C46.1283 48.8781 46.02 48.9288 45.9046 48.9544C45.7893 48.9801 45.6698 48.9801 45.5545 48.9544L40.2827 47.7768L40.2259 47.7639L26.7055 44.7447L26.4573 44.6892L19.0244 43.0283L19.1949 31.5822L19.2003 31.1998L19.2517 27.7352L19.3085 23.9112L25.1613 20.1117L25.5306 19.8721C30.9593 20.4291 38.1791 21.5005 43.0701 22.2646L43.3407 22.5894L47.8048 27.878L47.8359 27.9071Z" fill="black"/>
<path d="M48.4562 23.4121L47.8143 27.879L47.2258 31.9696L47.0615 33.1107L46.9674 35.5472L46.471 48.4681C46.4663 48.5862 46.4357 48.7018 46.3814 48.8068C46.3272 48.9118 46.2505 49.0036 46.1569 49.0757C46.0633 49.1478 45.955 49.1985 45.8397 49.2241C45.7244 49.2497 45.6048 49.2497 45.4895 49.2241L40.1609 48.0336L26.6406 45.0144L18.9595 43.298L19.1353 31.4694L19.1867 28.0049L19.2469 23.9522L19.3085 19.7837C20.5788 19.7235 22.6688 19.8595 25.164 20.1106C30.751 20.6717 38.3671 21.8067 43.3467 22.5884C46.3959 23.0669 48.4562 23.4121 48.4562 23.4121Z" fill="white"/>
<path opacity="0.1" d="M50.0853 30.5665L47.2262 31.9695L32.6344 39.1301L19.1871 28.0095L16.4687 25.7578L16.1021 25.996L19.1363 31.4714L18.9605 43.2999L26.6416 45.0163L27.6453 46.8281C27.6992 46.9256 27.7727 47.0108 27.8612 47.0784C27.9497 47.1459 28.0512 47.1944 28.1594 47.2207L38.6184 49.7736C38.7975 49.8168 38.986 49.7973 39.1526 49.7184C39.3191 49.6394 39.4535 49.5058 39.5336 49.3397L40.1599 48.0383L45.4885 49.2288C45.6038 49.2544 45.7234 49.2544 45.8387 49.2288C45.954 49.2031 46.0623 49.1525 46.1559 49.0804C46.2495 49.0083 46.3261 48.9165 46.3804 48.8115C46.4347 48.7065 46.4652 48.5909 46.47 48.4728L46.9664 35.5519L50.3572 31.0173L50.3666 30.9029L50.0853 30.5665Z" fill="black"/>
<path d="M16.0995 25.9902L14.8935 46.6551C14.8823 46.8464 14.9395 47.0354 15.0549 47.1883C15.1703 47.3412 15.3363 47.448 15.5232 47.4896L47.5516 54.6063C47.6639 54.6309 47.7802 54.6312 47.8926 54.6071C48.005 54.5831 48.111 54.5352 48.2034 54.4669C48.2959 54.3985 48.3726 54.3111 48.4285 54.2106C48.4845 54.1101 48.5183 53.9988 48.5276 53.8841L50.4046 30.9438L32.6325 39.6658L16.0995 25.9902Z" fill="#DCDFED"/>
<path opacity="0.1" d="M15.1159 47.1307L31.7551 36.8588C32.0014 36.7093 32.2927 36.6518 32.5774 36.6963C32.8621 36.7409 33.1218 36.8848 33.3108 37.1025L48.2035 54.4821C48.2576 54.5444 48.284 54.4997 48.2035 54.4821L15.1159 47.1307C15.0333 47.1801 15.0212 47.1097 15.1159 47.1307Z" fill="black"/>
<path d="M15.2348 47.1154L31.7022 37.1617C31.9625 37.0043 32.27 36.944 32.5704 36.9913C32.8709 37.0386 33.145 37.1905 33.3444 37.4202L48.1026 54.4033C48.127 54.4315 48.1419 54.4668 48.1452 54.504C48.1485 54.5412 48.14 54.5786 48.121 54.6107C48.1019 54.6428 48.0732 54.6681 48.0389 54.683C48.0047 54.6979 47.9666 54.7016 47.9301 54.6936L15.2882 47.441C15.2534 47.4335 15.2217 47.4157 15.1972 47.3899C15.1727 47.3641 15.1565 47.3315 15.1508 47.2964C15.145 47.2613 15.1499 47.2253 15.1649 47.193C15.1799 47.1607 15.2042 47.1337 15.2348 47.1154Z" fill="#E3E5F1"/>
<defs>
<linearGradient id="paint0_linear_0:3713" x1="56.9502" y1="54.3058" x2="56.9502" y2="12.3729" gradientUnits="userSpaceOnUse">
<stop stop-color="#808080" stop-opacity="0.25"/>
<stop offset="0.54" stop-color="#808080" stop-opacity="0.12"/>
<stop offset="1" stop-color="#808080" stop-opacity="0.1"/>
</linearGradient>
</defs>
</svg>
