<svg width="19" height="19" viewBox="0 0 19 19" fill="none" xmlns="http://www.w3.org/2000/svg">
<path d="M15.5807 10.467C15.8213 9.9865 15.9589 9.46011 15.9847 8.92218C16.0104 8.38424 15.9237 7.84686 15.7302 7.3451C15.5367 6.84333 15.2408 6.38844 14.8617 6.01011C14.4826 5.63179 14.0289 5.33852 13.5301 5.14944C13.3396 5.78357 13.0131 6.36742 12.5739 6.85941C13.0004 6.94699 13.3837 7.18104 13.659 7.52186C13.9342 7.86267 14.0844 8.28926 14.0841 8.72926C14.0837 9.16927 13.9328 9.5956 13.657 9.93594C13.3811 10.2763 12.9974 10.5097 12.5707 10.5965C12.1441 10.6834 11.7009 10.6183 11.3163 10.4125C10.9317 10.2066 10.6294 9.87251 10.4606 9.46694C10.2919 9.06136 10.2671 8.60925 10.3904 8.18729C10.5138 7.76533 10.7777 7.3995 11.1374 7.15186C11.7144 6.81767 12.1943 6.33575 12.5287 5.75455C12.8631 5.17334 13.0402 4.51336 13.0423 3.84098C13.0443 3.1686 12.8712 2.50752 12.5404 1.92424C12.2096 1.34096 11.7327 0.856038 11.1577 0.518254C10.5827 0.18047 9.92982 0.00173052 9.26481 1.25029e-05C8.59979 -0.00170551 7.94606 0.173659 7.36935 0.508467C6.79264 0.843276 6.31329 1.32572 5.97952 1.90729C5.64575 2.48885 5.46932 3.14903 5.46798 3.82141C5.46796 3.98082 5.47769 4.14008 5.49712 4.29828C6.14179 4.17568 6.80537 4.19953 7.4398 4.36812C7.31622 3.93455 7.3481 3.47078 7.52983 3.05867C7.71155 2.64656 8.03143 2.31261 8.43299 2.11577C8.83456 1.91893 9.292 1.87187 9.72455 1.98288C10.1571 2.09389 10.537 2.35584 10.7971 2.72249C11.0572 3.08914 11.1808 3.53691 11.1461 3.98676C11.1115 4.43661 10.9207 4.85962 10.6076 5.1811C10.2944 5.50259 9.87905 5.70189 9.43471 5.74381C8.99037 5.78574 8.54567 5.6676 8.1791 5.41025C7.6284 5.0399 6.97167 4.86488 6.31197 4.91264C5.42493 4.9171 4.56758 5.23623 3.88943 5.81439C3.21129 6.39255 2.75539 7.19305 2.60123 8.07629C2.44708 8.95952 2.60445 9.86945 3.04591 10.6474C3.48736 11.4253 4.18489 12.0219 5.01684 12.333C5.52945 12.5279 5.95677 12.9008 6.22233 13.385C6.4879 13.8693 6.57437 14.4333 6.4663 14.9761C6.35822 15.5189 6.06264 16.0051 5.63244 16.3477C5.20224 16.6904 4.6655 16.8671 4.11825 16.8462C3.57101 16.8253 3.04897 16.6082 2.64554 16.2337C2.24211 15.8593 1.98363 15.3519 1.91633 14.8024C1.84904 14.2529 1.97733 13.6971 2.27824 13.2345C2.57916 12.7719 3.03306 12.4326 3.55875 12.2774C3.03422 11.8595 2.60839 11.3286 2.31219 10.7235C1.45271 11.1622 0.767963 11.8856 0.372148 12.773C-0.0236673 13.6604 -0.106626 14.6582 0.137107 15.5999C0.38084 16.5417 0.936532 17.3705 1.71151 17.9482C2.48649 18.5258 3.4339 18.8174 4.39576 18.7742C5.35761 18.731 6.27576 18.3558 6.99709 17.711C7.71841 17.0662 8.19931 16.1909 8.35959 15.231C8.51986 14.2711 8.34982 13.2847 7.87782 12.4362C7.40582 11.5878 6.66039 10.9285 5.76585 10.5685C5.43008 10.4662 5.12901 10.2716 4.89621 10.0065C4.66341 9.74129 4.50804 9.41594 4.44742 9.06671C4.38681 8.71747 4.42333 8.35808 4.55291 8.0286C4.68249 7.69912 4.90005 7.41252 5.18131 7.20074C5.46257 6.98896 5.79649 6.86034 6.14582 6.82922C6.49515 6.7981 6.84617 6.86571 7.15972 7.02449C7.47328 7.18328 7.73705 7.42701 7.92161 7.7285C8.10618 8.02999 8.20429 8.37739 8.20501 8.73196C8.20278 9.11052 8.09088 9.48013 7.88315 9.79508C7.67541 10.11 7.38095 10.3565 7.03616 10.5041C7.57156 10.8907 8.02481 11.382 8.36906 11.9489C8.70454 11.7285 9.00357 11.456 9.25514 11.1414C9.765 11.779 10.4637 12.2344 11.2486 12.4406C12.0334 12.6468 12.863 12.5931 13.6154 12.2872C14.1358 12.1232 14.6968 12.1501 15.1995 12.3632C15.7022 12.5764 16.1144 12.962 16.3635 13.4523C16.6126 13.9426 16.6826 14.506 16.5612 15.0433C16.4397 15.5806 16.1347 16.0573 15.6997 16.3896C15.2647 16.7218 14.7278 16.8881 14.1834 16.8594C13.639 16.8306 13.1222 16.6085 12.7238 16.2322C12.3255 15.8559 12.0713 15.3496 12.006 14.8024C11.9406 14.2552 12.0684 13.7023 12.3667 13.2409C11.6996 13.266 11.0355 13.1384 10.424 12.8677C10.2653 13.1711 10.1002 13.959 10.1002 14.5199C10.0994 15.3062 10.3142 16.0774 10.7206 16.7479C11.127 17.4184 11.7092 17.9619 12.4025 18.3181C13.0959 18.6744 13.8733 18.8294 14.6485 18.766C15.4238 18.7027 16.1665 18.4234 16.7942 17.9591C17.422 17.4949 17.9102 16.8639 18.2048 16.1361C18.4995 15.4084 18.5889 14.6123 18.4632 13.8363C18.3375 13.0603 18.0016 12.3346 17.4928 11.7399C16.984 11.1451 16.3222 10.7045 15.5807 10.467Z" fill="#212D3D"/>
</svg>
