<svg width="28" height="10" viewBox="0 0 28 10" fill="none" xmlns="http://www.w3.org/2000/svg">
<path d="M7.11815 9.79285C7.04387 9.79183 6.97178 9.76727 6.91204 9.72263C6.85229 9.67799 6.80791 9.61552 6.78514 9.54402C6.69313 9.26787 6.59843 8.99393 6.50106 8.72221C6.37497 8.36976 6.25326 8.00845 6.13592 7.63828H2.44802C2.3302 8.00845 2.21019 8.37198 2.08799 8.72886C1.99451 9.00255 1.90225 9.27476 1.81121 9.5455C1.78841 9.61642 1.74428 9.67838 1.68497 9.72273C1.62567 9.76707 1.55415 9.79159 1.4804 9.79285H0.577042C0.519292 9.7912 0.462752 9.77572 0.412071 9.74767C0.36139 9.71963 0.318016 9.67983 0.285509 9.63154C0.253003 9.58325 0.232293 9.52785 0.225083 9.46989C0.217873 9.41193 0.224369 9.35307 0.244035 9.29814C0.510344 8.51055 0.765454 7.77217 1.00937 7.08302C1.30148 6.25506 1.58872 5.47091 1.8711 4.73057C2.15347 3.99022 2.43244 3.28532 2.708 2.61586C2.97479 1.97053 3.24938 1.33331 3.53175 0.704214C3.54045 0.682723 3.55518 0.664278 3.57413 0.651156C3.59308 0.638035 3.61541 0.630811 3.63837 0.630377H5.00326C5.02622 0.630811 5.04856 0.638035 5.06751 0.651156C5.08645 0.664278 5.10119 0.682723 5.10988 0.704214C5.39226 1.33331 5.66709 1.97053 5.93437 2.61586C6.21139 3.28581 6.4906 3.99072 6.772 4.73057C7.0534 5.47042 7.34307 6.25457 7.64103 7.08302C7.88786 7.77217 8.14516 8.51055 8.41293 9.29814C8.4326 9.35307 8.4391 9.41193 8.43189 9.46989C8.42468 9.52785 8.40397 9.58325 8.37146 9.63154C8.33895 9.67983 8.29558 9.71963 8.2449 9.74767C8.19422 9.77572 8.13768 9.7912 8.07993 9.79285H7.11815ZM4.45409 2.80341C4.44171 2.76984 4.41948 2.7409 4.39037 2.72046C4.36126 2.70003 4.32667 2.68908 4.29124 2.68908C4.2558 2.68908 4.22122 2.70003 4.19211 2.72046C4.163 2.7409 4.14077 2.76984 4.12839 2.80341C3.97698 3.18392 3.81096 3.61808 3.63034 4.1059C3.38253 4.77585 3.12425 5.5029 2.85551 6.28706H5.72697C5.45823 5.5029 5.198 4.77142 4.9463 4.09261C4.7647 3.60332 4.60064 3.17358 4.45409 2.80341ZM19.6483 2.70447C20.1522 2.70447 20.5762 2.77068 20.9204 2.90309C21.2367 3.01623 21.5203 3.20702 21.7456 3.45835C21.9564 3.70833 22.1065 4.00468 22.1838 4.32372C22.2751 4.68883 22.3195 5.0643 22.316 5.44088V9.32546C22.3167 9.41108 22.2879 9.49428 22.2346 9.56082C22.1813 9.62736 22.1068 9.6731 22.0239 9.69022C21.8165 9.7296 21.5582 9.77366 21.249 9.82239C20.7171 9.90133 20.18 9.93885 19.6424 9.93462C19.2812 9.93728 18.921 9.89739 18.5689 9.81574C18.2665 9.74811 17.9812 9.61761 17.7313 9.43253C17.497 9.25247 17.3107 9.01621 17.1894 8.7451C17.0499 8.41562 16.9834 8.05927 16.9944 7.70104C16.983 7.35279 17.0583 7.00722 17.2135 6.69612C17.3566 6.42879 17.5619 6.20071 17.8116 6.03158C18.0782 5.85389 18.3755 5.72864 18.688 5.66239C19.0292 5.58656 19.3777 5.54892 19.7271 5.55016C19.9039 5.55085 20.0804 5.56195 20.2559 5.58339C20.4552 5.60823 20.6527 5.64572 20.8474 5.69562V5.42759C20.8483 5.24941 20.8272 5.07182 20.7846 4.89891C20.7454 4.73649 20.6705 4.58507 20.5655 4.45589C20.4534 4.32407 20.3106 4.22256 20.15 4.16054C19.9424 4.08404 19.7223 4.04821 19.5015 4.05495C19.1766 4.05253 18.852 4.07897 18.5317 4.13396C18.4041 4.1571 18.2868 4.18171 18.1797 4.2078C18.1316 4.21856 18.0817 4.21903 18.0334 4.20918C17.9851 4.19932 17.9394 4.17936 17.8991 4.15058C17.8589 4.12179 17.8251 4.08481 17.7998 4.04202C17.7746 3.99923 17.7584 3.95158 17.7525 3.90211L17.6714 3.34464C17.6559 3.2546 17.674 3.16196 17.7221 3.08462C17.7703 3.00729 17.8451 2.95076 17.9321 2.92598C18.0826 2.88709 18.26 2.84796 18.4645 2.80858C18.855 2.73677 19.2513 2.70192 19.6483 2.70447ZM19.7746 8.66536C20.1332 8.67456 20.4918 8.6481 20.8452 8.58635V6.81426C20.7253 6.77995 20.6033 6.75356 20.4801 6.73525C20.3052 6.70756 20.1284 6.69422 19.9513 6.69538C19.7802 6.69559 19.6093 6.70892 19.4401 6.73525C19.2781 6.75923 19.1208 6.80908 18.9742 6.88292C18.8392 6.94998 18.7241 7.05186 18.6405 7.17827C18.5518 7.32269 18.5078 7.49058 18.5142 7.66043C18.5142 8.03946 18.6276 8.30159 18.8545 8.4468C19.0813 8.59201 19.3881 8.66511 19.7746 8.6661V8.66536ZM12.9063 8.99098C12.847 8.80204 12.8047 8.60803 12.78 8.41136C12.7788 8.39947 12.775 8.38802 12.7688 8.37787C12.7625 8.36772 12.7541 8.35914 12.7441 8.3528C12.7341 8.34646 12.7228 8.34251 12.711 8.34127C12.6993 8.34003 12.6874 8.34153 12.6763 8.34564C12.5634 8.38798 12.4241 8.43302 12.2586 8.48076C12.0184 8.54577 11.7704 8.57683 11.5217 8.57306C11.1186 8.57306 10.8331 8.45418 10.6651 8.21643C10.4971 7.97867 10.4132 7.58216 10.4132 7.02691V4.51644H12.1658V3.369C12.1674 3.32185 12.1505 3.27598 12.1188 3.2414C12.087 3.20682 12.043 3.18633 11.9964 3.18441H10.4132V1.46252C10.4135 1.44662 10.4106 1.43082 10.4049 1.41601C10.3991 1.40121 10.3906 1.38769 10.3796 1.37624C10.3687 1.36479 10.3557 1.35563 10.3413 1.34928C10.3268 1.34292 10.3113 1.3395 10.2956 1.33922L9.00738 1.54005C8.99165 1.54034 8.97613 1.54376 8.96171 1.55011C8.94729 1.55647 8.93425 1.56563 8.92333 1.57708C8.91241 1.58853 8.90383 1.60205 8.89808 1.61685C8.89233 1.63165 8.88952 1.64746 8.88981 1.66336V7.0402C8.8849 7.45063 8.92259 7.86046 9.00227 8.26294C9.06583 8.59187 9.19912 8.90297 9.39297 9.17484C9.58581 9.43243 9.84502 9.63142 10.1422 9.75003C10.4572 9.88195 10.8496 9.94816 11.3194 9.94865C11.7058 9.94865 12.0344 9.87481 12.3272 9.82313C12.5164 9.79064 12.8494 9.6976 13.0575 9.63632C13.0714 9.63205 13.0841 9.62467 13.0948 9.61474C13.1054 9.60481 13.1137 9.59258 13.119 9.57896C13.1244 9.56533 13.1266 9.55067 13.1256 9.53606C13.1245 9.52144 13.1202 9.50726 13.113 9.49455C13.026 9.33488 12.9567 9.166 12.9063 8.99098ZM16.2444 8.53762C16.2422 8.52815 16.2382 8.51922 16.2325 8.51134C16.2269 8.50347 16.2197 8.4968 16.2115 8.49172C16.2033 8.48664 16.1942 8.48325 16.1847 8.48176C16.1751 8.48026 16.1654 8.48067 16.1561 8.48298C15.9761 8.52653 15.7888 8.5293 15.6076 8.4911C15.4918 8.44255 15.387 8.3707 15.2995 8.27993C15.2211 8.18198 15.1671 8.06655 15.1417 7.94323C15.1096 7.78238 15.0949 7.61848 15.0979 7.45443V0.752947C15.0982 0.737044 15.0954 0.721239 15.0896 0.706435C15.0839 0.691631 15.0753 0.678117 15.0644 0.666667C15.0535 0.655216 15.0404 0.646052 15.026 0.639699C15.0116 0.633345 14.9961 0.629927 14.9803 0.629639L13.6914 0.829C13.6757 0.829288 13.6601 0.832706 13.6457 0.83906C13.6313 0.845413 13.6183 0.854577 13.6073 0.866027C13.5964 0.877478 13.5878 0.890992 13.5821 0.905796C13.5763 0.9206 13.5735 0.936405 13.5738 0.952308V7.75347C13.5698 8.06307 13.6059 8.37187 13.6812 8.672C13.7442 8.92589 13.8724 9.15844 14.0529 9.34614C14.2535 9.54064 14.4975 9.68348 14.7642 9.76258C15.0322 9.84602 16.1079 10.0166 16.6629 9.66881C16.6708 9.66385 16.6776 9.65727 16.6828 9.64949C16.688 9.64171 16.6916 9.6329 16.6933 9.62365C16.6949 9.61439 16.6946 9.60488 16.6924 9.59575C16.6902 9.58661 16.6861 9.57804 16.6804 9.5706C16.5227 9.3584 16.4051 9.1186 16.3335 8.86324C16.2979 8.75646 16.2681 8.64775 16.2444 8.53762ZM23.1259 9.52704C23.1243 9.57032 23.1382 9.61272 23.165 9.64649C23.1918 9.68025 23.2298 9.70311 23.2719 9.71089C23.9043 9.80762 25.1378 9.9516 25.9477 9.84528C27.1285 9.69022 28.1385 9.04267 27.9844 7.51719C27.8128 5.98802 26.813 5.7318 25.6526 5.48075C24.5076 5.25924 24.4937 4.74755 24.6967 4.44112C24.8035 4.30253 24.9502 4.20088 25.1166 4.1502C25.3352 4.07553 25.565 4.0398 25.7958 4.04462C26.1209 4.05651 26.4442 4.09802 26.7619 4.16866C26.8875 4.19328 27.0032 4.21936 27.1088 4.24693C27.1569 4.2596 27.2072 4.26184 27.2562 4.2535C27.3052 4.24516 27.352 4.22644 27.3934 4.19855C27.4347 4.17066 27.4698 4.13423 27.4963 4.09167C27.5228 4.04911 27.54 4.00137 27.547 3.95158L27.6361 3.39485C27.6523 3.30497 27.635 3.21219 27.5876 3.13445C27.5401 3.05671 27.4658 2.99953 27.379 2.97397C27.2286 2.93263 27.0511 2.89078 26.8466 2.84845C26.4572 2.77005 26.0614 2.72852 25.6643 2.7244C25.1604 2.71653 24.7354 2.77609 24.3892 2.90309C24.0713 3.01037 23.7847 3.19585 23.5553 3.44284C23.3409 3.68999 23.186 3.98388 23.1025 4.30157C22.8191 5.23635 23.3559 6.47534 24.4331 6.69464C25.5102 6.91394 26.4815 6.80761 26.4296 7.7483C26.3661 8.6624 24.0928 8.36336 23.2223 8.2024C23.2133 8.20077 23.2041 8.20116 23.1953 8.20353C23.1865 8.2059 23.1783 8.2102 23.1714 8.21612C23.1644 8.22204 23.1588 8.22943 23.155 8.23778C23.1512 8.24612 23.1492 8.25522 23.1492 8.26442L23.1259 9.52704Z" fill="#263746"/>
</svg>
