<svg width="199" height="160" viewBox="0 0 199 160" fill="none" xmlns="http://www.w3.org/2000/svg">
<g clip-path="url(#clip0_457:913)">
<path opacity="0.1" d="M115.62 18.2909C102.862 17.9234 90.7123 14.4911 79.1178 10.7355C67.5234 6.97985 56.0135 2.82598 43.5614 0.836589C35.553 -0.442857 26.3947 -0.623711 19.9418 2.95297C13.7312 6.39496 11.7257 12.3381 10.647 17.8542C9.83364 22.0023 9.35678 26.3697 11.5815 30.2523C13.1197 32.9459 15.8674 35.2142 17.7633 37.7962C24.3585 46.7831 19.6976 57.8633 12.5486 66.6367C9.19527 70.7521 5.30545 74.6789 2.71736 79.0598C0.129276 83.4407 -1.06286 88.4642 1.19643 92.9278C3.44033 97.353 8.78764 100.683 14.581 103.025C26.3466 107.777 40.2119 109.137 53.7311 109.909C83.6576 111.614 113.746 110.871 143.753 110.136C154.857 109.863 166.011 109.586 176.936 108.154C183.003 107.36 189.265 106.099 193.665 103.056C199.256 99.1923 200.641 92.6489 196.895 87.8043C190.611 79.6774 173.245 77.6592 168.843 68.9378C166.424 64.1374 168.909 58.7888 172.422 54.3367C179.959 44.786 192.594 36.4071 193.259 25.4905C193.715 17.9869 187.642 10.4834 178.252 6.9356C168.409 3.21655 154.759 3.68408 147.487 9.84081C140.024 16.1784 126.884 18.6238 115.62 18.2909Z" fill="white"/>
<path opacity="0.1" d="M83.7286 160C114.604 160 139.634 157.474 139.634 154.359C139.634 151.243 114.604 148.718 83.7286 148.718C52.8529 148.718 27.8232 151.243 27.8232 154.359C27.8232 157.474 52.8529 160 83.7286 160Z" fill="white"/>
<path d="M32.5853 153.747C32.5853 153.747 30.1049 139.685 20.8985 132.716C17.0356 129.792 14.2091 125.815 12.9747 121.286C12.3937 119.14 12.0215 116.943 11.8633 114.725" stroke="#535461" stroke-width="2" stroke-miterlimit="10"/>
<path d="M6.09127 110.3C6.86039 111.806 12 114.856 12 114.856C12 114.856 12.6461 109.159 11.8712 107.65C11.0963 106.142 9.17928 105.513 7.57951 106.244C5.97975 106.975 5.31638 108.791 6.09127 110.3Z" fill="white"/>
<path d="M5.60128 120.841C7.12029 121.709 13.1848 121.632 13.1848 121.632C13.1848 121.632 10.4487 116.518 8.93541 115.65C7.42217 114.783 5.4436 115.241 4.52451 116.674C3.60541 118.107 4.08419 119.973 5.60128 120.841Z" fill="white"/>
<path d="M13.1401 135.025C14.9129 135.05 20.1064 132.091 20.1064 132.091C20.1064 132.091 15.0129 128.982 13.2381 128.955C11.4634 128.928 10.004 130.267 9.96937 131.943C9.93475 133.618 11.3653 134.994 13.1401 135.025Z" fill="white"/>
<path d="M21.401 144.535C23.143 144.845 28.7922 142.755 28.7922 142.755C28.7922 142.755 24.3275 138.873 22.5874 138.569C20.8472 138.265 19.1648 139.338 18.8379 140.993C18.511 142.648 19.657 144.227 21.401 144.535Z" fill="white"/>
<path d="M19.4028 119.142C18.7972 120.718 14.019 124.25 14.019 124.25C14.019 124.25 12.7538 118.648 13.3595 117.072C13.9652 115.496 15.8091 114.683 17.4762 115.254C19.1433 115.825 20.0085 117.569 19.4028 119.142Z" fill="white"/>
<path d="M28.915 130.386C27.8382 131.72 22.1621 133.74 22.1621 133.74C22.1621 133.74 22.739 128.035 23.808 126.704C24.3481 126.058 25.1118 125.639 25.9466 125.532C26.7815 125.425 27.6259 125.638 28.3112 126.127C28.6439 126.356 28.9255 126.652 29.1381 126.996C29.3507 127.339 29.4897 127.724 29.5465 128.124C29.6032 128.524 29.5764 128.932 29.4677 129.321C29.359 129.711 29.1708 130.073 28.915 130.386Z" fill="white"/>
<path d="M36.5715 142.513C35.7485 143.998 30.5166 146.896 30.5166 146.896C30.5166 146.896 30.057 141.184 30.88 139.698C31.703 138.213 33.6431 137.64 35.2159 138.417C36.7888 139.194 37.3925 141.028 36.5715 142.513Z" fill="white"/>
<path opacity="0.25" d="M6.09127 110.3C6.86039 111.806 12 114.856 12 114.856C12 114.856 12.6461 109.159 11.8712 107.65C11.0963 106.142 9.17928 105.513 7.57951 106.244C5.97975 106.975 5.31638 108.791 6.09127 110.3Z" fill="black"/>
<path opacity="0.25" d="M5.60128 120.841C7.12029 121.709 13.1848 121.632 13.1848 121.632C13.1848 121.632 10.4487 116.518 8.93541 115.65C7.42217 114.783 5.4436 115.241 4.52451 116.674C3.60541 118.107 4.08419 119.973 5.60128 120.841Z" fill="black"/>
<path opacity="0.25" d="M13.1401 135.025C14.9129 135.05 20.1064 132.091 20.1064 132.091C20.1064 132.091 15.0129 128.982 13.2381 128.955C11.4634 128.928 10.004 130.267 9.96937 131.943C9.93475 133.618 11.3653 134.994 13.1401 135.025Z" fill="black"/>
<path opacity="0.25" d="M21.401 144.535C23.143 144.845 28.7922 142.755 28.7922 142.755C28.7922 142.755 24.3275 138.873 22.5874 138.569C20.8472 138.265 19.1648 139.338 18.8379 140.993C18.511 142.648 19.657 144.227 21.401 144.535Z" fill="black"/>
<path opacity="0.25" d="M19.4028 119.142C18.7972 120.718 14.019 124.25 14.019 124.25C14.019 124.25 12.7538 118.648 13.3595 117.072C13.9652 115.496 15.8091 114.683 17.4762 115.254C19.1433 115.825 20.0085 117.569 19.4028 119.142Z" fill="black"/>
<path opacity="0.25" d="M28.915 130.386C27.8382 131.72 22.1621 133.74 22.1621 133.74C22.1621 133.74 22.739 128.035 23.808 126.704C24.3481 126.058 25.1118 125.639 25.9466 125.532C26.7815 125.425 27.6259 125.638 28.3112 126.127C28.6439 126.356 28.9255 126.652 29.1381 126.996C29.3507 127.339 29.4897 127.724 29.5465 128.124C29.6032 128.524 29.5764 128.932 29.4677 129.321C29.359 129.711 29.1708 130.073 28.915 130.386Z" fill="black"/>
<path opacity="0.25" d="M36.5715 142.513C35.7485 143.998 30.5166 146.896 30.5166 146.896C30.5166 146.896 30.057 141.184 30.88 139.698C31.703 138.213 33.6431 137.64 35.2159 138.417C36.7888 139.194 37.3925 141.028 36.5715 142.513Z" fill="black"/>
<path d="M32.2745 153.378C32.2745 153.378 36.0374 139.571 30.6112 129.674C28.3346 125.522 27.4559 120.805 28.2712 116.191C28.6626 113.997 29.2646 111.847 30.069 109.769" stroke="#535461" stroke-width="2" stroke-miterlimit="10"/>
<path d="M26.6886 103.514C26.7501 105.188 30.1362 109.942 30.1362 109.942C30.1362 109.942 33.1704 104.98 33.1088 103.304C33.0473 101.628 31.561 100.318 29.7882 100.376C28.0153 100.434 26.6252 101.838 26.6886 103.514Z" fill="white"/>
<path d="M21.7204 112.964C22.7356 114.338 28.3118 116.589 28.3118 116.589C28.3118 116.589 28.0041 110.867 26.9889 109.492C26.4754 108.825 25.7293 108.378 24.9 108.238C24.0708 108.099 23.2194 108.278 22.5164 108.739C22.1748 108.954 21.8812 109.237 21.654 109.571C21.4268 109.904 21.2709 110.281 21.1962 110.678C21.1215 111.075 21.1294 111.482 21.2196 111.876C21.3099 112.269 21.4803 112.64 21.7204 112.964Z" fill="white"/>
<path d="M22.5279 128.812C24.1392 129.515 30.1575 128.799 30.1575 128.799C30.1575 128.799 26.833 124.004 25.2217 123.302C23.6104 122.6 21.703 123.264 20.9589 124.785C20.2148 126.307 20.9185 128.11 22.5279 128.812Z" fill="white"/>
<path d="M25.9981 140.674C27.4614 141.624 33.5201 141.876 33.5201 141.876C33.5201 141.876 31.1012 136.622 29.6399 135.673C28.9356 135.214 28.084 135.038 27.2557 135.181C26.4273 135.324 25.6835 135.775 25.1732 136.443C24.9335 136.769 24.764 137.142 24.6754 137.537C24.5869 137.932 24.5812 138.342 24.6587 138.739C24.7362 139.137 24.8952 139.514 25.1258 139.847C25.3563 140.18 25.6534 140.461 25.9981 140.674Z" fill="white"/>
<path d="M35.0665 116.695C33.8359 117.903 27.9521 119.306 27.9521 119.306C27.9521 119.306 29.2 113.697 30.4287 112.489C31.0367 111.906 31.8419 111.574 32.684 111.558C33.526 111.542 34.343 111.845 34.9723 112.405C35.2747 112.671 35.5186 112.998 35.6886 113.363C35.8585 113.729 35.9508 114.126 35.9597 114.529C35.9685 114.932 35.8937 115.333 35.74 115.706C35.5863 116.079 35.3569 116.415 35.0665 116.695Z" fill="white"/>
<path d="M38.9308 130.615C37.3752 131.421 31.3203 131.096 31.3203 131.096C31.3203 131.096 34.2872 126.094 35.8427 125.293C37.3983 124.493 39.3518 125.026 40.2036 126.496C41.0554 127.966 40.494 129.809 38.9308 130.615Z" fill="white"/>
<path d="M40.7365 144.633C39.3464 145.676 33.3203 146.322 33.3203 146.322C33.3203 146.322 35.3508 140.922 36.741 139.879C37.4167 139.377 38.2568 139.149 39.0934 139.24C39.93 139.331 40.7015 139.734 41.2538 140.37C41.5149 140.677 41.7096 141.035 41.8257 141.422C41.9417 141.808 41.9765 142.214 41.9279 142.615C41.8793 143.015 41.7484 143.401 41.5433 143.749C41.3383 144.096 41.0636 144.397 40.7365 144.633Z" fill="white"/>
<path d="M190.782 72.7573C190.898 72.4418 190.032 70.6929 190.032 70.6063C190.032 70.5197 189.138 69.5443 189.138 68.9998C189.138 68.4553 187.954 67.2797 187.954 67.2797C187.954 67.2797 186.367 66.6198 186.194 65.1864C186.021 63.7531 184.293 63.7223 184.289 63.7223C184.289 63.7223 184.289 63.5915 184.3 63.3933C184.3 62.9469 184.287 62.1504 184.087 61.7156C183.881 61.3198 183.528 61.0207 183.104 60.8825C183.104 60.8825 182.931 59.7647 182.585 59.4203C182.392 59.2182 182.253 58.9701 182.182 58.6994C182.111 58.4288 182.11 58.1445 182.18 57.8734C182.353 57.3289 181.949 55.9494 181.111 55.757C180.272 55.5646 179.322 55.2414 179.322 55.2414C179.322 55.2414 179.228 55.2587 179.092 55.278L178.976 55.2414C178.775 55.2784 178.572 55.3035 178.369 55.3164C178.192 55.3227 178.018 55.2654 177.88 55.1548C177.59 54.8393 175.252 54.2371 174.819 54.2371C174.387 54.2371 173.144 53.6599 173.144 53.6599L171.906 52.7133C171.558 52.4478 170.914 51.3665 170.82 51.2145L170.808 51.1933C170.702 50.949 170.614 50.6969 170.547 50.4391C170.969 49.9976 171.33 49.5012 171.62 48.9635C171.65 48.9077 171.677 48.8499 171.704 48.7941C171.769 48.793 171.834 48.7827 171.896 48.7634C171.921 48.7634 171.946 48.7441 171.971 48.7345C172.264 48.5803 172.485 48.3169 172.585 48.0015C172.606 47.9399 172.625 47.8764 172.641 47.8091C172.641 47.7879 172.641 47.7648 172.654 47.7436C172.668 47.7225 172.673 47.6571 172.681 47.6128C172.689 47.5686 172.691 47.5628 172.694 47.5397C172.698 47.5166 172.708 47.4531 172.714 47.4089C172.719 47.3646 172.714 47.3608 172.714 47.3377C172.714 47.2819 172.727 47.228 172.735 47.1742C172.754 46.9707 172.784 46.7684 172.825 46.5681C172.998 45.7985 173.465 45.1328 173.798 44.4132C173.846 44.3113 173.89 44.2055 173.931 44.0996C173.971 43.9938 174.012 43.8688 174.044 43.7514L174.073 43.6437C174.094 43.559 174.113 43.4724 174.131 43.3858C174.131 43.3474 174.146 43.3089 174.152 43.2704C174.171 43.1511 174.188 43.0318 174.198 42.9106C174.26 42.2235 174.162 41.5313 173.912 40.8885C173.694 40.3498 173.373 39.865 173.154 39.3262C172.821 38.5105 172.735 37.5947 172.329 36.8097C171.65 35.5052 170.051 34.853 168.735 35.3436C168.107 35.5764 167.562 36.0305 166.926 36.2344C166.072 36.5057 165.161 36.3017 164.278 36.1786C163.396 36.0555 162.419 36.0459 161.709 36.6231C160.892 37.2868 160.667 38.5355 159.9 39.2647C159.579 39.5706 159.177 39.7668 158.837 40.0497C158.598 40.2413 158.414 40.4929 158.304 40.7788C158.304 40.8 158.291 40.8192 158.285 40.8404C158.279 40.8616 158.272 40.8885 158.266 40.9135C158.26 40.9385 158.254 40.9712 158.25 41.0001C158.247 41.029 158.25 41.0405 158.25 41.0597C158.247 41.111 158.247 41.1624 158.25 41.2137C158.256 41.2622 158.264 41.3104 158.275 41.358C158.275 41.3714 158.275 41.3849 158.275 41.3984C158.275 41.4118 158.298 41.4773 158.312 41.5177C158.311 41.5253 158.311 41.5331 158.312 41.5407C158.327 41.585 158.345 41.6273 158.362 41.6716L158.391 41.737L158.414 41.7909C158.527 42.0025 158.616 42.2257 158.681 42.4566C158.717 42.6026 158.708 42.7561 158.656 42.8971C158.578 43.0568 158.469 43.1993 158.335 43.3166C157.761 43.9143 157.317 44.6253 157.033 45.4041C157.001 45.4926 156.968 45.5811 156.939 45.6734L156.979 45.6831C157.062 45.7083 157.146 45.7269 157.231 45.7389C157.279 45.7389 157.327 45.7504 157.377 45.7543C157.575 45.7647 157.773 45.7491 157.966 45.7081C158.014 45.6985 158.064 45.6869 158.112 45.6734C158.31 45.6187 158.503 45.5473 158.689 45.4599C158.689 45.5176 158.689 45.5773 158.689 45.635C158.689 45.6927 158.689 45.7004 158.689 45.7331C158.691 47.0016 159.046 48.2445 159.715 49.3222C160.384 50.3998 161.339 51.2697 162.475 51.834C162.475 51.8956 162.492 51.9591 162.5 52.0264C162.507 52.0938 162.513 52.1303 162.519 52.1823L162.442 52.1072C162.442 52.1072 161.921 51.8494 161.431 52.594C160.94 53.3386 160.017 53.6849 160.017 53.6849C160.017 53.6849 154.764 54.5161 154.562 55.2048L152.109 55.3472C152.109 55.3472 151.242 55.4627 151.148 57.2712C151.053 59.0797 150.6 59.251 150.6 59.251C150.6 59.251 149.59 61.0287 149.677 61.9445C149.763 62.8603 148.908 63.3221 148.908 63.3221L148.792 64.9556C148.792 64.9556 147.831 64.8132 147.579 65.931C147.327 67.0489 146.858 67.5664 146.858 67.5664C146.858 67.5664 145.27 68.8862 145.183 70.0041L144.202 70.6063C144.202 70.6063 141.922 70.0907 141.403 69.1729L141.243 69.0229C141.238 69.0156 141.234 69.0079 141.23 68.9998C141.229 69.0036 141.229 69.0075 141.23 69.0113C140.888 68.6881 140.165 68.0147 140.268 68.1686C140.336 68.3128 140.352 68.4757 140.315 68.6304L140.145 68.438L139.692 67.9339C139.692 67.9339 136.006 64.4707 133.84 64.2052C133.812 64.1494 133.673 63.6049 133.304 63.9455C132.997 64.226 132.752 64.5669 132.584 64.9469C132.415 65.3269 132.327 65.7377 132.325 66.1534C132.323 66.5691 132.407 66.9807 132.572 67.3623C132.737 67.7439 132.979 68.0872 133.283 68.3706L136.734 71.5971L136.823 71.6626L137.565 72.6245C137.44 72.9247 137.334 73.2152 137.248 73.4807C137.248 73.4807 137.248 73.498 137.238 73.5057C137.221 73.5634 137.202 73.6173 137.184 73.6712L137.167 73.7289C137.152 73.7828 137.134 73.8367 137.119 73.8867C137.103 73.9367 137.102 73.9502 137.092 73.9809C137.082 74.0117 137.092 74.0175 137.077 74.0348C136.996 74.3234 136.942 74.5447 136.915 74.6678L136.723 74.6082L136.915 74.689C136.915 74.6986 136.915 74.7101 136.915 74.7198L136.903 74.7794L137.08 74.8564C138.092 75.2969 143.139 77.5114 143.399 77.8481C143.687 78.2195 145.591 79.3104 147.323 78.3926C149.056 77.4749 149.438 76.0685 149.438 76.0685C149.438 76.0685 151.111 73.7462 151.169 73.4018C151.226 73.0574 152.526 72.6553 152.526 72.6553C152.526 72.6553 152.642 76.5033 151.978 77.9039C151.315 79.3046 150.073 85.5344 150.073 85.5344C150.154 85.5182 150.236 85.5131 150.319 85.5191C150.273 85.7442 150.246 85.8788 150.246 85.8788C150.347 85.8605 150.45 85.8605 150.552 85.8788C150.459 86.5869 149.929 89.873 149.929 89.873C149.929 89.873 149.755 91.3641 149.467 91.8797C149.179 92.3954 149.15 95.0928 149.15 95.0928L148.688 97.0418C148.741 97.1569 148.799 97.2692 148.863 97.3785C148.863 97.3785 149.359 98.479 150.192 99.0966C150.154 99.4031 150.076 99.7032 149.959 99.9893C149.779 100.424 149.7 100.895 149.729 101.365C149.729 101.365 149.238 103.574 149.296 104.205C149.354 104.836 148.979 106.385 148.979 106.385L148.442 111.36C148.442 111.36 148.096 115.691 148.269 116.868C148.442 118.046 148.152 119.649 148.152 119.649C148.152 119.649 148.498 123.062 148.411 123.435C148.325 123.808 147.892 125.413 148.152 126.304C148.411 127.194 148.269 129.63 148.269 129.63C148.269 129.63 148.442 132.841 148.642 133.874C148.842 134.908 148.584 136.227 148.584 136.227C148.584 136.227 148.392 138.434 148.296 138.434C148.2 138.434 147.46 139.954 148.988 141.447C150.517 142.94 149.565 142.707 149.565 142.707C149.565 142.707 148.354 142.105 148.496 143.338C148.634 144.512 148.825 144.206 148.842 144.173L148.554 145.116L148.746 145.145L148.579 145.337C148.406 145.556 148.213 145.759 148.002 145.942C147.654 146.199 147.617 146.773 147.617 146.773C147.617 146.773 145.483 149.097 143.491 150.272C142.443 150.892 141.539 151.415 141.145 151.848C140.789 152.233 140.847 152.552 141.585 152.797C143.145 153.312 145.885 153.566 147.848 152.912C149.018 152.521 150.071 151.84 150.907 150.932C150.907 150.932 152.149 150.301 153.363 150.53C154.576 150.759 156.999 149.184 156.999 149.184L156.954 148.776L156.826 147.604C156.744 147.505 156.684 147.391 156.649 147.267C156.615 147.144 156.606 147.015 156.624 146.888C156.638 146.541 156.604 146.194 156.522 145.857C156.503 145.743 156.479 145.63 156.458 145.524L156.679 145.484C156.679 145.484 156.393 144.02 156.912 143.733C157.431 143.446 157.285 139.693 157.285 139.693C157.285 139.693 156.624 138.832 156.276 138.69C155.928 138.548 156.247 136.766 156.306 136.537C156.366 136.308 156.826 131.862 156.826 131.862C156.826 131.862 156.653 130.457 156.883 129.855C157.114 129.253 156.606 126.944 156.606 126.944C156.606 126.944 156.433 126.658 156.753 126.313C157.072 125.969 156.945 122.9 156.945 122.9C156.945 122.9 156.918 121.351 156.918 120.949C156.918 120.547 157.264 119.085 157.581 118.598C157.899 118.111 157.697 116.589 157.697 116.589L157.714 116.476C157.714 116.432 157.729 116.378 157.741 116.312L157.766 116.16C157.907 115.315 158.097 114.48 158.337 113.657C158.721 112.453 159.144 110.331 159.144 110.331L161.836 103.327L161.867 103.245C161.867 103.245 163.107 105.54 163.107 107.67C163.107 107.67 163.425 110.223 163.338 110.912C163.252 111.601 163.594 114.823 163.594 114.823C163.594 114.823 163.969 119.47 163.969 119.672C163.969 119.874 164.43 123.458 164.721 124.002C165.011 124.547 164.43 126.211 164.257 126.382C164.084 126.554 164.315 130.771 164.315 130.771C164.315 130.771 163.882 134.098 163.796 134.786C163.709 135.475 163.363 138.115 163.652 139.146C163.94 140.177 163.825 140.322 163.825 140.322C163.825 140.322 164.865 141.384 164.257 141.476C164.036 141.524 163.828 141.619 163.647 141.754C163.466 141.889 163.315 142.062 163.206 142.26C163.097 142.458 163.031 142.677 163.014 142.903C162.996 143.128 163.027 143.355 163.104 143.567C163.463 144.619 163.887 145.647 164.375 146.646C164.375 146.646 164.553 146.605 164.851 146.546V146.886L164.886 148.595C164.886 148.595 165.078 150.23 164.972 150.603C164.888 150.877 164.78 152.162 164.717 152.833C164.696 153.078 164.684 153.241 164.684 153.241C164.684 153.241 164.684 154.761 167.887 154.303C171.091 153.845 171.668 152.583 171.668 152.583C171.668 152.583 171.668 152.524 171.691 152.425C171.739 152.135 171.843 151.519 171.927 151.177C172.043 150.717 171.004 148.652 171.004 148.652C171.004 148.652 170.831 147.248 170.541 146.932C170.422 146.75 170.343 146.545 170.31 146.33C170.283 146.215 170.26 146.094 170.241 145.976C170.313 145.985 170.384 145.998 170.454 146.015C170.454 146.015 170.281 145.01 170.947 144.695C171.612 144.379 171.437 143.721 171.35 143.433C171.264 143.144 171.61 141.54 171.61 141.54C171.564 141.38 171.56 141.211 171.601 141.05C171.642 140.889 171.724 140.742 171.841 140.624C172.246 140.22 172.562 137.411 172.562 137.411L172.619 126.569C172.619 126.569 172.823 124.645 172.593 123.875C172.362 123.106 172.129 121.611 172.446 121.209C172.764 120.807 172.475 118.944 172.475 118.944C172.475 118.944 172.475 115.014 172.91 114.04C173.344 113.067 173.198 106.898 173.198 106.898L173.312 102.858C173.312 102.858 174.256 101.965 174.033 97.3111C175.038 97.2476 176.173 97.2111 176.34 97.3496C176.657 97.6093 178.707 98.9273 179.918 98.0961C180.178 97.9807 181.36 96.9783 181.36 96.9783L180.853 88.3781C181.17 88.8572 181.362 89.1765 181.362 89.1765C181.362 87.9721 184.768 84.0703 184.768 84.0703C184.768 84.0703 187.942 79.9703 188.634 79.4816C189.327 78.9929 190.684 76.4129 190.684 76.4129C190.885 75.9207 191.117 75.442 191.378 74.9795C191.707 74.4504 190.667 73.0728 190.782 72.7573ZM183.333 75.7664C182.468 75.853 180.641 77.8328 180.62 78.2676C180.607 78.4946 180.414 78.7986 180.236 79.0372C180.222 78.864 180.207 78.687 180.193 78.5081C179.99 75.9742 179.768 72.8862 179.868 72.5861C180.043 72.0704 179.984 69.7482 179.984 69.7482L180.015 69.7039C180.591 71.5029 182.405 73.625 182.405 73.625C182.405 73.625 182.722 74.5428 183.097 74.5716C183.472 74.6005 183.333 75.7664 183.333 75.7664Z" fill="url(#paint0_linear_457:913)"/>
<path d="M137.059 75.1141C137.059 75.1141 138.11 69.5923 141.496 69.5635L143.971 74.6582L142.321 75.7972C142.321 75.7972 138.737 75.9107 137.059 75.1141Z" fill="#65617D"/>
<path opacity="0.1" d="M143.971 74.658L142.321 75.797C142.321 75.797 139.799 75.8778 137.995 75.4334C137.673 75.3571 137.36 75.2501 137.059 75.114C137.059 75.114 137.059 75.0832 137.078 75.0255C137.078 75.0255 137.078 75.012 137.078 75.0043C137.233 74.3113 137.447 73.6329 137.718 72.9765C137.824 72.7283 137.941 72.4724 138.068 72.2165C138.564 71.2545 139.26 70.3271 140.214 69.8635C140.566 69.6903 140.95 69.5902 141.343 69.5691H141.443H141.493L141.546 69.6826L142.383 71.4026L143.971 74.658Z" fill="black"/>
<path d="M172.075 97.5996C172.075 97.5996 175.633 97.259 175.944 97.5149C176.256 97.7708 178.276 99.0791 179.472 98.2537C180.668 97.4283 179.87 94.5539 179.87 94.4404C179.87 94.3269 179.757 90.2557 179.757 90.2557L177.623 87.3813L174.95 82.3443L169.489 81.8018L169.632 89.8017L169.603 93.8997L172.075 97.5996Z" fill="#65617D"/>
<path opacity="0.1" d="M172.075 97.5996C172.075 97.5996 175.633 97.259 175.944 97.5149C176.256 97.7708 178.276 99.0791 179.472 98.2537C180.668 97.4283 179.87 94.5539 179.87 94.4404C179.87 94.3269 179.757 90.2557 179.757 90.2557L177.623 87.3813L174.95 82.3443L169.489 81.8018L169.632 89.8017L169.603 93.8997L172.075 97.5996Z" fill="black"/>
<path d="M140.785 69.4172C140.785 69.4172 140.501 72.89 138.339 72.9458C138.339 72.9458 137.726 72.5764 136.901 71.9607C135.001 70.5389 131.988 67.8049 132.821 65.2614C134.015 61.6193 139.818 68.3398 139.818 68.3398L140.262 68.84L140.785 69.4172Z" fill="#FBBEBE"/>
<path opacity="0.1" d="M140.785 69.4173C140.785 69.4173 140.501 72.8901 138.34 72.9459C138.34 72.9459 137.726 72.5765 136.901 71.9608L136.719 71.7241C137.086 71.9155 137.49 72.0245 137.903 72.0435C138.228 72.0565 138.55 71.9701 138.824 71.7958C139.099 71.6216 139.314 71.3677 139.441 71.0681C139.669 70.6216 139.869 70.1615 140.039 69.6905C140.145 69.416 140.219 69.1309 140.262 68.8401L140.785 69.4173Z" fill="black"/>
<path d="M139.847 75.7124L139.36 75.0852L137.722 72.9688L136.888 71.8894C137.254 72.0818 137.659 72.1909 138.072 72.2088C138.616 72.2223 139.226 72.0164 139.61 71.2353C139.837 70.7879 140.037 70.3273 140.208 69.8558C140.478 69.0862 140.474 68.7014 140.378 68.5609C140.281 68.4205 140.981 69.0766 141.318 69.396L141.329 69.4075L141.487 69.5556L141.545 69.6711L142.37 71.3199C142.37 71.3199 142.37 71.343 142.37 71.3892C142.45 71.9183 142.729 75.241 139.847 75.7124Z" fill="#E7EFFD"/>
<path d="M156.887 148.976C156.887 148.976 154.497 150.542 153.303 150.322C152.109 150.103 150.884 150.722 150.884 150.722C150.06 151.622 149.022 152.298 147.867 152.687C145.944 153.341 143.233 153.083 141.697 152.571C140.97 152.329 140.91 152.017 141.26 151.631C141.645 151.2 142.541 150.682 143.567 150.066C145.531 148.9 147.634 146.603 147.634 146.603C147.634 146.603 147.663 146.026 148.005 145.78C148.216 145.598 148.409 145.397 148.582 145.179C148.888 144.818 149.174 144.441 149.174 144.441L156.204 144.645C156.204 144.645 156.323 145.151 156.418 145.668C156.498 146.004 156.531 146.349 156.516 146.694C156.498 146.819 156.505 146.946 156.538 147.069C156.571 147.191 156.629 147.305 156.708 147.404L156.835 148.558L156.887 148.976Z" fill="#65617D"/>
<path d="M171.592 150.94C171.508 151.28 171.4 151.89 171.36 152.177L171.335 152.335C171.335 152.335 170.758 153.587 167.61 154.043C164.463 154.499 164.453 152.989 164.453 152.989C164.453 152.989 164.465 152.827 164.484 152.583C164.54 151.917 164.653 150.642 164.738 150.37C164.849 150.001 164.651 148.377 164.651 148.377L164.618 146.682L164.593 145.505L169.829 144.962C169.862 145.354 169.918 145.743 169.998 146.128C170.031 146.342 170.109 146.546 170.227 146.726C170.512 147.04 170.681 148.435 170.681 148.435C170.681 148.435 171.706 150.484 171.592 150.94Z" fill="#65617D"/>
<path opacity="0.1" d="M156.204 144.645C156.204 144.645 156.324 145.151 156.418 145.668C155.658 145.809 152.34 146.384 151.511 145.982C150.571 145.526 148.552 145.27 148.552 145.27L148.584 145.155C148.89 144.793 149.177 144.416 149.177 144.416L156.204 144.645Z" fill="black"/>
<path opacity="0.1" d="M169.999 146.128C168.672 145.903 165.769 146.447 164.615 146.682L164.59 145.505L169.826 144.962C169.859 145.354 169.917 145.743 169.999 146.128Z" fill="black"/>
<path d="M172.95 102.979L172.836 106.992C172.836 106.992 172.979 113.113 172.552 114.08C172.125 115.048 172.125 118.948 172.125 118.948C172.125 118.948 172.41 120.797 172.096 121.195C171.783 121.593 172.012 123.073 172.238 123.843C172.465 124.612 172.267 126.519 172.267 126.519L172.21 137.278C172.21 137.278 171.898 140.066 171.498 140.466C171.383 140.584 171.302 140.73 171.262 140.89C171.222 141.05 171.225 141.218 171.271 141.376C171.271 141.376 170.931 142.969 171.015 143.256C171.1 143.542 171.271 144.194 170.617 144.506C169.964 144.818 170.133 145.816 170.133 145.816C168.57 145.445 164.132 146.444 164.132 146.444C163.652 145.454 163.234 144.437 162.88 143.396C162.804 143.185 162.773 142.961 162.79 142.737C162.807 142.514 162.872 142.297 162.98 142.1C163.087 141.904 163.236 141.732 163.415 141.598C163.594 141.463 163.8 141.369 164.018 141.32C164.614 141.233 163.592 140.181 163.592 140.181C163.592 140.181 163.705 140.039 163.42 139.015C163.136 137.991 163.476 135.359 163.563 134.686C163.649 134.013 164.074 130.702 164.074 130.702C164.074 130.702 163.847 126.519 164.018 126.348C164.19 126.176 164.757 124.526 164.474 123.985C164.191 123.444 163.732 119.887 163.732 119.687C163.732 119.487 163.365 114.877 163.365 114.877C163.365 114.877 163.022 111.66 163.109 110.977C163.195 110.294 162.88 107.762 162.88 107.762C162.88 105.646 161.657 103.377 161.657 103.377L161.626 103.46L158.99 110.409C158.99 110.409 158.563 112.514 158.194 113.709C157.961 114.521 157.775 115.347 157.639 116.181L157.614 116.333C157.614 116.397 157.594 116.451 157.589 116.493L157.571 116.608C157.571 116.608 157.764 118.117 157.456 118.602C157.148 119.086 156.802 120.537 156.802 120.935C156.802 121.334 156.831 122.871 156.831 122.871C156.831 122.871 156.944 125.917 156.639 126.259C156.333 126.602 156.495 126.884 156.495 126.884C156.495 126.884 157.006 129.193 156.779 129.788C156.552 130.382 156.723 131.779 156.723 131.779C156.723 131.779 156.268 136.193 156.212 136.42C156.156 136.647 155.841 138.413 156.183 138.555C156.525 138.698 157.177 139.55 157.177 139.55C157.177 139.55 157.321 143.281 156.808 143.563C156.295 143.846 156.579 145.295 156.579 145.295C156.579 145.295 152.457 146.091 151.518 145.635C150.58 145.179 148.559 144.924 148.559 144.924L148.842 143.989C148.824 144.021 148.636 144.325 148.501 143.159C148.361 141.936 149.555 142.532 149.555 142.532C149.555 142.532 150.493 142.761 148.978 141.282C147.463 139.802 148.209 138.292 148.296 138.292C148.382 138.292 148.582 136.102 148.582 136.102C148.582 136.102 148.838 134.792 148.638 133.766C148.438 132.741 148.269 129.553 148.269 129.553C148.269 129.553 148.411 127.134 148.155 126.253C147.9 125.372 148.325 123.775 148.411 123.406C148.498 123.036 148.146 119.658 148.146 119.658C148.146 119.658 148.43 118.065 148.259 116.899C148.088 115.733 148.43 111.433 148.43 111.433L148.942 106.481C148.942 106.481 149.311 104.941 149.255 104.316C149.199 103.691 149.684 101.499 149.684 101.499C149.655 101.033 149.733 100.566 149.911 100.133C150.195 99.5562 150.309 97.6861 150.309 97.6861L153.041 91.4235L154.387 85.9017L172.448 85.7305C172.448 85.7305 172.515 86.2095 172.625 87.0773C172.734 87.945 172.888 89.234 173.059 90.8252C173.217 92.2701 173.39 93.9689 173.557 95.8602C174.104 101.898 172.95 102.979 172.95 102.979Z" fill="#3F3D56"/>
<path d="M171.279 53.1402L167.068 57.6385C167.068 57.6385 161.665 55.474 162.234 54.7352C162.453 54.4485 162.426 53.5442 162.292 52.5476C162.1 50.97 161.665 49.1556 161.665 49.1556C161.665 49.1556 171.108 47.6165 170.318 49.2114C170.027 49.7886 170.077 50.4736 170.258 51.1027C170.487 51.8323 170.832 52.5203 171.279 53.1402Z" fill="#FBBEBE"/>
<path opacity="0.1" d="M170.312 49.2155C170.021 49.7927 169.883 49.8543 170.064 50.4834C168.829 51.8052 167.258 53.2558 165.305 53.2558C164.259 53.2574 163.228 53.0157 162.292 52.5497C162.1 50.9721 161.665 49.1578 161.665 49.1578C161.665 49.1578 171.108 47.6186 170.312 49.2155Z" fill="black"/>
<path d="M172.077 46.3082C172.047 48.0853 171.321 49.7796 170.054 51.0258C168.788 52.2719 167.083 52.9703 165.306 52.9703C163.53 52.9703 161.825 52.2719 160.558 51.0258C159.292 49.7796 158.565 48.0853 158.535 46.3082C158.535 46.2755 158.535 46.2428 158.535 46.212C158.548 44.4153 159.273 42.6973 160.552 41.4359C161.185 40.8113 161.935 40.3176 162.759 39.983C163.583 39.6484 164.464 39.4794 165.353 39.4858C166.242 39.4921 167.122 39.6736 167.941 40.0198C168.76 40.3661 169.502 40.8704 170.127 41.5039C170.751 42.1375 171.244 42.8878 171.579 43.7121C171.913 44.5364 172.082 45.4186 172.075 46.3082H172.077Z" fill="#FBBEBE"/>
<path opacity="0.1" d="M173.056 91.0003C172.16 91.0003 169.173 91.033 165.835 91.0849H165.795L164.693 91.1042H164.659C160.702 91.1677 156.8 90.3942 155.237 90.5405C151.911 90.8521 156.433 87.4621 156.433 87.4621C158.913 88.0652 161.464 88.3241 164.015 88.2317L164.976 88.1817C167.999 88.0104 171.039 87.7257 172.627 87.2485C172.733 88.1297 172.884 89.4092 173.056 91.0003Z" fill="black"/>
<path d="M173.056 90.8292C172.16 90.8292 169.173 90.8619 165.835 90.9138H165.795L164.693 90.9331H164.659C160.702 90.9966 156.8 90.2231 155.237 90.3693C151.911 90.6829 156.433 87.291 156.433 87.291C158.913 87.894 161.464 88.153 164.015 88.0606L164.976 88.0106C167.999 87.8393 171.039 87.5546 172.627 87.0793C172.733 87.9605 172.884 89.2342 173.056 90.8292Z" fill="#5F5D7E"/>
<path opacity="0.1" d="M163.486 55.0182L158.252 57.4674L154.214 88.7186C154.214 88.7186 156.602 87.6373 157.969 88.3203C159.336 89.0034 163.545 88.3781 163.545 88.3781C163.545 88.3781 166.622 88.2068 167.074 88.5493C167.525 88.8918 172.873 87.1179 172.873 87.1179C172.873 87.1179 173.834 84.9553 173.1 84.6167C172.365 84.2781 173.334 80.9207 173.334 80.9207L172.873 58.3775L171.961 55.4742L169.515 53.9946L167.016 55.9859L165.822 56.1572L163.486 55.0182Z" fill="black"/>
<path d="M163.486 54.6776L158.252 57.1249L154.214 88.378C154.214 88.378 156.602 87.2967 157.969 87.9797C159.336 88.6628 163.545 88.0355 163.545 88.0355C163.545 88.0355 166.622 87.8662 167.074 88.2068C167.525 88.5473 172.877 86.783 172.877 86.783C172.877 86.783 173.838 84.6205 173.103 84.2819C172.369 83.9432 173.334 80.5763 173.334 80.5763L172.873 58.0349L171.961 55.1336L169.516 53.6521L167.016 55.6453L165.822 55.8166L163.486 54.6776Z" fill="#E7EFFD"/>
<path opacity="0.1" d="M163.4 56.1282C163.4 56.1282 164.907 57.9213 164.88 58.2926C164.853 58.664 164.794 59.5452 164.794 59.5452L163.655 61.8539C163.655 61.8539 163.03 64.7284 163.03 65.3267C163.03 65.9251 162.034 71.0987 162.034 71.0987L160.837 79.0697L159.329 89.5169L160.867 92.1624L162.686 90.6232L165.105 72.0068L165.617 68.3358C165.617 68.3358 166.157 61.7327 166.157 61.0497C166.157 60.3667 165.845 58.5736 165.845 58.5736C165.845 58.5736 166.215 56.8651 167.751 56.4572C169.287 56.0493 167.638 56.3706 167.638 56.3706L166.755 55.6606L165.986 55.9723C165.986 55.9723 163.855 55.3316 163.4 56.1282Z" fill="black"/>
<path d="M163.228 55.9589C163.228 55.9589 164.737 57.7521 164.708 58.1215C164.68 58.4909 164.622 59.374 164.622 59.374L163.486 61.6827C163.486 61.6827 162.859 64.5572 162.859 65.1555C162.859 65.7539 161.863 70.9275 161.863 70.9275L160.669 78.8966L159.161 89.3438L160.699 91.9912L162.52 90.452L164.937 71.8375L165.451 68.1685C165.451 68.1685 165.991 61.5654 165.991 60.8824C165.991 60.1994 165.679 58.4062 165.679 58.4062C165.679 58.4062 166.049 56.6977 167.585 56.2995C169.121 55.9012 167.471 56.2148 167.471 56.2148L166.589 55.5029L165.82 55.8165C165.82 55.8165 163.684 55.1605 163.228 55.9589Z" fill="white"/>
<path opacity="0.1" d="M162.234 52.969C162.234 52.969 162.005 53.1402 161.949 54.2792C161.894 55.4182 161.096 57.979 161.096 57.979C161.096 57.979 164.055 55.93 165.534 56.157L162.234 52.969Z" fill="black"/>
<path d="M162.234 52.6284C162.234 52.6284 162.005 52.7977 161.949 53.9367C161.894 55.0757 161.096 57.6365 161.096 57.6365C161.096 57.6365 164.055 55.5875 165.534 55.8165L162.234 52.6284Z" fill="#E7EFFD"/>
<path opacity="0.1" d="M170.312 52.0591L165.644 56.1571C165.644 56.1571 169.57 58.4909 170.081 59.0604C170.593 59.6299 171.104 53.4809 171.104 53.4809L170.312 52.0591Z" fill="black"/>
<path d="M170.483 51.7166L165.818 55.8165C165.818 55.8165 169.743 58.1503 170.258 58.7198C170.773 59.2893 171.281 53.1403 171.281 53.1403L170.483 51.7166Z" fill="#E7EFFD"/>
<path opacity="0.1" d="M162.403 52.969C162.403 52.969 161.892 52.7131 161.409 53.4538C161.054 53.9367 160.571 54.3111 160.015 54.5351C160.015 54.5351 154.837 55.3605 154.631 56.0435L152.213 56.1859C152.213 56.1859 151.359 56.2994 151.274 58.0925C151.19 59.8857 150.734 60.0569 150.734 60.0569C150.734 60.0569 149.738 61.8212 149.824 62.7313C149.911 63.6413 149.055 64.0992 149.055 64.0992L152.611 73.3497C152.611 73.3497 152.726 77.163 152.07 78.5579C151.415 79.9528 150.194 86.1288 150.194 86.1288C150.194 86.1288 150.705 86.0153 150.676 86.3558C150.647 86.6963 150.069 90.4269 150.069 90.4269C150.069 90.4269 149.897 91.9065 149.613 92.4202C149.328 92.9339 149.299 95.6063 149.299 95.6063L148.846 97.5418C148.846 97.5418 149.926 99.9622 151.576 99.6197C153.226 99.2772 156.212 92.8184 156.212 92.8184L158.119 85.844L159.598 78.9562L160.025 74.2886L160.707 63.9568L161.703 57.1248C161.703 57.1248 162.803 53.4481 162.403 52.969Z" fill="black"/>
<path d="M162.234 52.6285C162.234 52.6285 161.721 52.3727 161.238 53.1115C160.883 53.595 160.4 53.9695 159.844 54.1927C159.844 54.1927 154.668 55.0181 154.46 55.7011L152.041 55.8435C152.041 55.8435 151.19 55.959 151.103 57.7521C151.017 59.5452 150.563 59.7146 150.563 59.7146C150.563 59.7146 149.567 61.4808 149.653 62.3908C149.74 63.3009 148.884 63.7568 148.884 63.7568L152.441 73.0073C152.441 73.0073 152.555 76.8207 151.901 78.2155C151.247 79.6104 150.022 85.7883 150.022 85.7883C150.022 85.7883 150.534 85.6729 150.507 86.0153C150.48 86.3578 149.88 90.0846 149.88 90.0846C149.88 90.0846 149.709 91.566 149.424 92.0778C149.14 92.5896 149.113 95.2658 149.113 95.2658L148.657 97.2014C148.657 97.2014 149.738 99.6198 151.388 99.2793C153.037 98.9387 156.029 92.4761 156.029 92.4761L157.935 85.5036L159.413 78.6157L159.84 73.9462L160.523 63.6145L161.519 56.7843C161.519 56.7843 162.632 53.1115 162.234 52.6285Z" fill="#65617D"/>
<path opacity="0.1" d="M143.971 74.658L142.321 75.797C142.321 75.797 139.799 75.8778 137.995 75.4334L137.078 75.0255L136.886 74.9447L137.078 75.0043C138.03 75.2872 138.774 75.2814 139.357 75.0851C141.691 74.2982 141.433 70.4407 141.343 69.5691C141.343 69.4806 141.327 69.4248 141.324 69.4036C141.323 69.3998 141.323 69.3959 141.324 69.3921L141.337 69.4152C141.369 69.4677 141.405 69.5179 141.445 69.5652C141.477 69.6018 141.512 69.6403 141.549 69.6768L142.373 71.3257C142.373 71.3257 142.373 71.3488 142.373 71.395L143.971 74.658Z" fill="black"/>
<path d="M149.684 63.5298L148.886 63.7568L148.772 65.3787C148.772 65.3787 147.834 65.2364 147.578 66.3407C147.322 67.4451 146.867 67.9646 146.867 67.9646C146.867 67.9646 145.302 69.2729 145.217 70.383L144.256 70.9814C144.256 70.9814 142.008 70.4677 141.496 69.5576C141.496 69.5576 142.521 76.9014 137.059 75.1083C137.059 75.1083 143.175 77.7826 143.46 78.154C143.744 78.5253 145.621 79.6046 147.328 78.6946C149.036 77.7845 149.405 76.3858 149.405 76.3858C149.405 76.3858 151.055 74.077 151.11 73.7384C151.166 73.3998 152.456 72.9977 152.456 72.9977L154.902 67.0776L149.684 63.5298Z" fill="#65617D"/>
<path opacity="0.1" d="M169.658 55.4741L170.483 51.7166C170.483 51.7166 170.852 52.9402 171.223 53.225L172.446 54.1658C172.446 54.1658 173.669 54.7334 174.096 54.7334C174.523 54.7334 176.826 55.3317 177.111 55.6453C177.395 55.9589 178.534 55.73 178.534 55.73C178.534 55.73 179.472 56.0436 180.297 56.2417C181.122 56.4399 181.52 57.8079 181.349 58.3581C181.279 58.6274 181.279 58.9099 181.349 59.1792C181.418 59.4484 181.555 59.6955 181.747 59.8973C182.089 60.2398 182.26 61.3499 182.26 61.3499C182.677 61.4876 183.022 61.7842 183.221 62.1753C183.506 62.8006 183.414 64.1666 183.414 64.1666L179.183 70.1444C179.183 70.1444 179.239 72.4532 179.07 72.9631C178.901 73.4729 179.666 82.1847 179.666 82.1847L180.549 97.1552C180.549 97.1552 179.382 98.1518 179.126 98.2653C178.87 98.3788 178.614 92.9724 178.614 92.7723C178.614 92.5722 172.044 82.9235 172.044 82.9235C172.044 82.9235 171.162 81.5017 171.162 81.1919C171.162 80.8822 170.337 78.0039 170.337 78.0039L169.085 72.4532L169.658 55.4741Z" fill="black"/>
<path d="M183.777 63.8376C183.777 64.03 183.777 64.1647 183.777 64.1647L179.547 70.129C179.547 70.129 179.605 72.4378 179.435 72.9457C179.335 73.2439 179.553 76.3069 179.754 78.8235C179.897 80.6378 180.031 82.1674 180.031 82.1674L180.406 88.5165L180.912 97.1359C180.912 97.1359 179.747 98.1325 179.491 98.2461C179.235 98.3596 178.98 92.9532 178.98 92.7531C178.98 92.553 172.407 82.9062 172.407 82.9062C172.407 82.9062 171.525 81.4805 171.525 81.1746C171.525 80.8687 170.7 77.9866 170.7 77.9866L169.45 72.4359L170.017 55.4722L170.483 51.7166C170.483 51.7166 171.194 52.9421 171.563 53.225L172.786 54.1639C172.786 54.1639 174.009 54.741 174.436 54.741C174.863 54.741 177.168 55.3375 177.453 55.6511C177.737 55.9647 178.874 55.7357 178.874 55.7357C178.874 55.7357 179.812 56.0494 180.637 56.2475C181.462 56.4457 181.862 57.8136 181.691 58.3639C181.621 58.6332 181.621 58.9158 181.691 59.1851C181.76 59.4544 181.897 59.7015 182.089 59.9031C182.429 60.2436 182.6 61.3538 182.6 61.3538C183.017 61.4926 183.362 61.7897 183.562 62.1811C183.765 62.5947 183.785 63.3855 183.777 63.8376Z" fill="#65617D"/>
<path opacity="0.1" d="M149.007 139.669C149.147 139.669 155.121 139.896 155.008 140.864C154.894 141.832 149.007 139.669 149.007 139.669Z" fill="black"/>
<path opacity="0.1" d="M150.344 141.291C150.344 141.291 154.355 141.945 153.301 142.544C152.247 143.142 150.344 141.291 150.344 141.291Z" fill="black"/>
<path opacity="0.1" d="M165.259 139.042C165.259 139.042 171.916 139.619 170.92 140.352C169.924 141.085 167.562 141.205 167.458 141.233C167.355 141.262 165.259 139.042 165.259 139.042Z" fill="black"/>
<path opacity="0.1" d="M164.453 141.974C164.453 141.974 168.151 142.599 168.264 143.321C168.378 144.042 164.453 141.974 164.453 141.974Z" fill="black"/>
<path opacity="0.1" d="M166.501 124.839C166.501 124.839 169.885 125.636 170.085 126.186L166.501 124.839Z" fill="black"/>
<path opacity="0.1" d="M153.443 127.287C153.443 127.287 151.68 127.798 153.387 128.826C155.095 129.853 153.443 127.287 153.443 127.287Z" fill="black"/>
<path opacity="0.1" d="M161.267 99.9333C161.459 99.9333 164.566 98.9098 165.647 99.3561C166.42 99.6468 167.238 99.8024 168.064 99.8159L161.267 99.9333Z" fill="black"/>
<path opacity="0.1" d="M161.665 103.177L161.634 103.46L158.99 110.409C158.99 110.409 158.564 112.514 158.194 113.709C157.961 114.522 157.775 115.347 157.639 116.181L159.986 101.613L161.665 103.177Z" fill="black"/>
<path d="M165.795 90.9138L164.693 90.9331H164.659L164.013 88.0644L164.974 88.0125L165.795 90.9138Z" fill="#3F3D56"/>
<path d="M179.216 87.439L178.507 88.0162L176.143 89.9652C176.143 89.9652 169.742 93.3822 167.979 90.1364C166.426 87.2774 173.682 85.236 175.43 84.7916C175.667 84.732 175.801 84.7012 175.801 84.7012L179.216 87.439Z" fill="#FBBEBE"/>
<path opacity="0.1" d="M151.88 59.4587C151.88 59.4587 153.132 60.0359 153.418 60.8248C153.705 61.6136 151.88 59.4587 151.88 59.4587Z" fill="black"/>
<path opacity="0.1" d="M148.012 67.9973C148.012 67.9973 146.191 70.2176 146.931 71.0757C147.671 71.9338 148.012 67.9973 148.012 67.9973Z" fill="black"/>
<path opacity="0.1" d="M180.552 60.7112C180.552 60.7112 178.845 60.8824 178.789 62.362L180.552 60.7112Z" fill="black"/>
<path opacity="0.1" d="M164.737 84.0509C164.907 83.8797 168.833 78.0732 169.737 78.5869L164.737 84.0509Z" fill="black"/>
<path opacity="0.1" d="M172.077 46.3082C172.079 47.4241 171.804 48.5229 171.276 49.5058L171.226 49.4962C170.797 49.4058 170.574 48.9056 170.245 48.5939C170.043 48.4016 169.786 48.2773 169.51 48.2387C169.235 48.2 168.953 48.2489 168.707 48.3784C168.458 48.5279 168.256 48.7436 168.123 49.0015C167.99 49.2594 167.931 49.5493 167.953 49.8387C167.736 48.9267 167.805 47.959 167.593 47.0451C167.382 46.1312 166.746 45.2077 165.873 45.1923C165.488 45.1923 165.059 45.3289 164.786 45.048C164.623 44.8787 164.594 44.6112 164.467 44.4035C163.844 43.3953 161.946 43.9051 161.171 44.4227C160.396 44.9402 159.498 45.7695 158.535 46.212C158.548 44.4153 159.273 42.6973 160.552 41.4359C161.185 40.8113 161.935 40.3176 162.759 39.983C163.583 39.6484 164.464 39.4794 165.353 39.4858C166.242 39.4921 167.122 39.6736 167.941 40.0198C168.76 40.3661 169.502 40.8704 170.127 41.5039C170.751 42.1375 171.244 42.8878 171.579 43.7121C171.913 44.5364 172.082 45.4186 172.076 46.3082H172.077Z" fill="black"/>
<path d="M164.468 44.2342C164.591 44.44 164.624 44.7075 164.787 44.8768C165.059 45.1596 165.499 45.0134 165.874 45.0211C166.747 45.0365 167.383 45.96 167.595 46.8739C167.806 47.7878 167.737 48.7555 167.954 49.6675C167.932 49.3778 167.991 49.0877 168.124 48.8296C168.258 48.5716 168.461 48.3561 168.71 48.2072C168.957 48.0777 169.238 48.0288 169.514 48.0675C169.79 48.1061 170.047 48.2304 170.248 48.4227C170.577 48.7344 170.8 49.2346 171.229 49.325C171.658 49.4155 172.071 49.0037 172.227 48.5554C172.383 48.1071 172.371 47.6069 172.473 47.1375C172.665 46.2505 173.242 45.5213 173.565 44.6767C173.946 43.6497 173.936 42.5182 173.536 41.4983C173.323 40.9634 173.006 40.4824 172.788 39.9495C172.461 39.1376 172.377 38.2179 171.977 37.4483C171.308 36.1535 169.731 35.507 168.433 35.9938C167.816 36.2246 167.279 36.6749 166.651 36.8769C165.81 37.1482 164.911 36.9442 164.041 36.823C163.172 36.7018 162.209 36.6903 161.509 37.2617C160.703 37.9216 160.484 39.1606 159.727 39.8841C159.409 40.188 159.015 40.3824 158.681 40.6536C158.346 40.9249 158.056 41.3521 158.104 41.808C158.154 42.3968 158.731 42.9316 158.517 43.478C158.44 43.6365 158.333 43.7784 158.202 43.8956C157.568 44.5599 157.097 45.362 156.825 46.239C158.346 46.7161 159.994 45.0365 161.186 44.2419C161.949 43.7359 163.845 43.2241 164.468 44.2342Z" fill="#7C5C5C"/>
<path opacity="0.1" d="M179.216 87.439L178.506 88.0162C177.881 86.9773 175.318 84.8993 175.318 84.8993L175.43 84.7916C175.666 84.732 175.801 84.7012 175.801 84.7012L179.216 87.439Z" fill="black"/>
<path d="M179.899 86.3848C179.899 86.3848 179.643 87.0197 179.382 87.5661C179.12 88.1126 178.832 88.6128 178.819 88.2068C178.79 87.4103 175.49 84.7341 175.49 84.7341L175.938 84.2992L176.455 83.7952L179.899 86.3848Z" fill="#E7EFFD"/>
<path opacity="0.1" d="M180.012 82.1713L180.387 88.5204C179.503 87.1448 177.076 83.62 175.517 83.7335L179.295 79.3834C179.452 79.2082 179.597 79.0224 179.729 78.8274C179.872 80.6417 180.012 82.1713 180.012 82.1713Z" fill="black"/>
<path opacity="0.1" d="M179.899 86.3848C179.899 86.3848 179.644 87.0197 179.382 87.5661C178.39 86.2059 177.027 84.5993 175.938 84.2953L176.456 83.7913L179.899 86.3848Z" fill="black"/>
<path d="M182.743 63.3586L183.768 64.1552C183.768 64.1552 185.474 64.184 185.645 65.6078C185.816 67.0315 187.375 67.6857 187.375 67.6857C187.375 67.6857 188.54 68.8516 188.54 69.3922C188.54 69.9329 189.423 70.9006 189.423 70.9872C189.423 71.0738 190.277 72.8092 190.161 73.1209C190.046 73.4326 191.073 74.8005 190.759 75.3123C190.502 75.7722 190.274 76.2477 190.077 76.7361C190.077 76.7361 188.74 79.2988 188.058 79.7817C187.375 80.2646 184.245 84.3358 184.245 84.3358C184.245 84.3358 180.89 88.2068 180.89 89.4016C180.89 89.4016 177.621 83.9375 175.683 84.0799L179.467 79.724C179.467 79.724 180.12 79.0141 180.149 78.5869C180.178 78.1598 181.97 76.1954 182.824 76.1108C182.824 76.1108 182.964 74.9429 182.595 74.9141C182.226 74.8852 181.912 73.9752 181.912 73.9752C181.912 73.9752 179.413 71.0161 179.38 69.1363C179.347 67.2566 182.743 63.3586 182.743 63.3586Z" fill="#65617D"/>
<path opacity="0.1" d="M184.25 66.0618C184.25 66.0618 181.862 67.828 182.374 68.3955C182.885 68.9631 184.25 66.0618 184.25 66.0618Z" fill="black"/>
<path opacity="0.1" d="M184.363 73.3498C184.363 73.3498 188.801 71.9261 189.257 73.3498H184.363Z" fill="black"/>
<path opacity="0.1" d="M156.887 148.976C156.887 148.976 154.497 150.542 153.303 150.323C152.109 150.103 150.884 150.723 150.884 150.723C150.06 151.622 149.022 152.298 147.867 152.687C145.944 153.341 143.233 153.083 141.697 152.572C140.97 152.329 140.91 152.018 141.26 151.631C142.931 151.964 146.663 152.627 147.669 152.145C148.976 151.517 150.855 150.151 150.855 150.151C150.855 150.151 153.303 149.811 153.643 149.811C153.885 149.811 155.775 149.03 156.842 148.583L156.887 148.976Z" fill="black"/>
<path opacity="0.1" d="M171.36 152.177L171.335 152.335C171.335 152.335 170.758 153.588 167.61 154.044C164.463 154.5 164.453 152.989 164.453 152.989C164.453 152.989 164.465 152.828 164.484 152.583C165.484 152.962 167.664 153.386 171.36 152.177Z" fill="black"/>
<path opacity="0.1" d="M153.061 65.7212C153.061 65.7212 153.061 72.2108 152.505 72.8515C151.95 73.4921 153.061 65.7212 153.061 65.7212Z" fill="black"/>
<path opacity="0.1" d="M178.703 67.8125L179.528 70.1328C179.528 70.1328 179.857 67.8548 178.703 67.8125Z" fill="black"/>
<g opacity="0.1">
<path opacity="0.1" d="M158.59 42.9335C158.797 42.3987 158.251 41.8754 158.18 41.302C158.108 41.4637 158.077 41.6409 158.09 41.8176C158.126 42.2486 158.444 42.6507 158.528 43.0509C158.552 43.0136 158.573 42.9744 158.59 42.9335Z" fill="black"/>
<path opacity="0.1" d="M168.031 49.0633C167.827 48.1667 167.887 47.2163 167.679 46.3178C167.472 45.4193 166.831 44.4804 165.96 44.465C165.576 44.465 165.145 44.6035 164.874 44.3226C164.708 44.1533 164.682 43.8839 164.553 43.6781C163.93 42.668 162.034 43.1797 161.257 43.6973C160.103 44.4669 158.496 46.0888 157.004 45.7232C156.933 45.8945 156.867 46.0696 156.812 46.2485C158.332 46.7256 159.98 45.046 161.172 44.2514C161.942 43.7358 163.845 43.224 164.468 44.2341C164.591 44.4399 164.624 44.7074 164.787 44.8767C165.058 45.1595 165.499 45.0133 165.874 45.021C166.747 45.0364 167.383 45.9599 167.595 46.8738C167.806 47.7877 167.737 48.7554 167.954 49.6674C167.94 49.4629 167.966 49.2577 168.031 49.0633Z" fill="black"/>
<path opacity="0.1" d="M172.307 47.9974C172.154 48.4476 171.748 48.8632 171.309 48.767C170.871 48.6708 170.658 48.1763 170.331 47.8627C170.128 47.6725 169.871 47.5498 169.595 47.5116C169.32 47.4733 169.039 47.5214 168.792 47.6491C168.555 47.7906 168.36 47.9929 168.227 48.2351C168.094 48.4773 168.029 48.7506 168.037 49.0267C168.152 48.6792 168.391 48.3861 168.708 48.2033C168.955 48.0737 169.236 48.0249 169.512 48.0635C169.788 48.1022 170.044 48.2264 170.246 48.4187C170.575 48.7304 170.798 49.2307 171.227 49.3211C171.656 49.4115 172.069 48.9998 172.225 48.5515C172.306 48.2853 172.358 48.0112 172.38 47.7338C172.362 47.8231 172.337 47.9112 172.307 47.9974Z" fill="black"/>
<path opacity="0.1" d="M173.646 44.1187C173.326 44.9633 172.746 45.6906 172.553 46.5795C172.515 46.7584 172.492 46.9412 172.471 47.1259C172.663 46.2409 173.24 45.5155 173.561 44.6728C173.703 44.2937 173.791 43.8968 173.824 43.4934C173.781 43.7061 173.721 43.9151 173.646 44.1187Z" fill="black"/>
</g>
<path d="M132.539 64.7292C132.578 64.7292 132.609 64.698 132.609 64.6595C132.609 64.6211 132.578 64.5898 132.539 64.5898C132.501 64.5898 132.47 64.6211 132.47 64.6595C132.47 64.698 132.501 64.7292 132.539 64.7292Z" fill="#E6E8EC"/>
<path opacity="0.1" d="M157.1 154.128C166.269 154.128 173.702 153.369 173.702 152.433C173.702 151.497 166.269 150.738 157.1 150.738C147.932 150.738 140.499 151.497 140.499 152.433C140.499 153.369 147.932 154.128 157.1 154.128Z" fill="white"/>
<path d="M96.0536 41.2481L45.7705 73.8903L78.585 133.11C78.7383 133.387 78.9473 133.629 79.1988 133.822C79.4503 134.014 79.7389 134.151 80.0463 134.226L109.779 141.484C110.288 141.607 110.824 141.552 111.298 141.327C111.772 141.103 112.154 140.723 112.382 140.25L127.13 109.592L143.293 87.9719L104.937 42.566C103.87 41.3031 102.379 40.4726 100.744 40.2301C99.1087 39.9875 97.4413 40.3494 96.0536 41.2481Z" fill="#DCDFED"/>
<path opacity="0.1" d="M143.805 88.228L143.662 88.4204L134.194 101.086L134.023 101.315L127.642 109.852L115.028 136.077L114.674 136.81L112.894 140.51C112.666 140.983 112.283 141.364 111.808 141.589C111.334 141.813 110.796 141.868 110.286 141.743L80.5542 134.482C80.2467 134.408 79.958 134.27 79.7065 134.078C79.4549 133.886 79.246 133.644 79.0928 133.366L76.2336 128.216L75.7202 127.289L55.0828 90.0289L54.9059 89.7114L46.2803 74.1464L47.3224 73.4692L55.2232 68.3418L55.4059 68.2225L72.0438 57.4213L73.0937 56.7402L96.5614 41.5042C97.9491 40.6038 99.6173 40.2407 101.253 40.4829C102.889 40.7252 104.381 41.5562 105.449 42.8202L122.946 63.5414L123.715 64.465L136.415 79.4989L136.485 79.5816L142.87 87.139L143.674 88.0914L143.805 88.228Z" fill="black"/>
<path opacity="0.1" d="M135.991 79.3256L134.442 90.0999L133.974 93.3514L133.707 100.278L133.686 100.818L132.296 137.008C132.282 137.344 132.196 137.673 132.041 137.971C131.887 138.27 131.669 138.531 131.403 138.736C131.137 138.941 130.829 139.085 130.501 139.158C130.173 139.23 129.834 139.23 129.506 139.157L114.52 135.81L114.358 135.773L75.9232 127.19L75.2175 127.033L54.0879 122.311L54.5724 89.7728L54.5878 88.6858L54.734 78.8369L54.8955 67.9664L71.5334 57.1652L72.5833 56.4841C88.0157 58.0676 108.54 61.1132 122.443 63.2854L123.213 64.2089L135.903 79.2429L135.991 79.3256Z" fill="black"/>
<path d="M137.747 66.5503L135.922 79.2486L134.249 90.8771L133.782 94.1209L133.515 101.047L132.103 137.778C132.09 138.114 132.003 138.442 131.849 138.741C131.695 139.039 131.477 139.3 131.211 139.505C130.945 139.71 130.637 139.854 130.309 139.927C129.981 140 129.641 140 129.313 139.927L114.166 136.543L75.7308 127.96L53.8955 123.081L54.3954 89.4553L54.5416 79.6064L54.7127 68.0856L54.8877 56.2358C58.4987 56.0646 64.4401 56.4513 71.5333 57.1651C87.4156 58.7601 109.066 61.9866 123.222 64.2088C131.89 65.5691 137.747 66.5503 137.747 66.5503Z" fill="white"/>
<path opacity="0.1" d="M142.378 86.883L134.25 90.8714L92.7695 111.227L54.5423 79.6142L46.8146 73.2131L45.7725 73.8904L54.3981 89.4554L53.8982 123.081L75.7335 127.96L78.5869 133.11C78.7401 133.388 78.949 133.63 79.2006 133.822C79.4521 134.014 79.7408 134.152 80.0483 134.226L109.78 141.484C110.29 141.606 110.826 141.551 111.299 141.327C111.772 141.102 112.155 140.722 112.382 140.25L114.163 136.551L129.31 139.935C129.638 140.008 129.978 140.008 130.306 139.935C130.634 139.862 130.941 139.718 131.208 139.513C131.474 139.308 131.692 139.047 131.846 138.749C132 138.45 132.087 138.121 132.1 137.786L133.512 101.055L143.151 88.1644L143.178 87.8392L142.378 86.883Z" fill="black"/>
<path d="M45.7701 73.8904L42.3418 132.635C42.3101 133.179 42.4728 133.716 42.8007 134.151C43.1287 134.585 43.6006 134.889 44.1319 135.007L135.18 155.238C135.5 155.308 135.83 155.309 136.15 155.241C136.469 155.172 136.77 155.036 137.033 154.842C137.296 154.647 137.514 154.399 137.673 154.113C137.832 153.828 137.928 153.511 137.955 153.185L143.291 87.972L92.7691 112.766L45.7701 73.8904Z" fill="#DCDFED"/>
<path opacity="0.1" d="M42.9684 133.98L90.2693 104.78C90.9697 104.355 91.7977 104.191 92.6069 104.318C93.4162 104.445 94.1546 104.854 94.6917 105.473L137.028 154.878C137.182 155.055 137.257 154.929 137.028 154.878L42.9684 133.98C42.6992 133.921 42.7339 134.121 42.9684 133.98Z" fill="black"/>
<path d="M43.3069 133.932L90.1194 105.636C90.8594 105.189 91.7335 105.017 92.5876 105.152C93.4416 105.286 94.2209 105.718 94.7879 106.371L136.741 154.649C136.811 154.73 136.853 154.83 136.863 154.936C136.872 155.041 136.848 155.147 136.794 155.239C136.739 155.33 136.658 155.402 136.56 155.444C136.463 155.487 136.355 155.497 136.251 155.475L43.4588 134.857C43.36 134.836 43.2699 134.785 43.2003 134.712C43.1306 134.639 43.0846 134.546 43.0682 134.446C43.0518 134.346 43.0658 134.244 43.1084 134.152C43.151 134.061 43.2201 133.984 43.3069 133.932Z" fill="#E3E5F1"/>
</g>
<defs>
<linearGradient id="paint0_linear_457:913" x1="161.892" y1="154.384" x2="161.892" y2="35.1801" gradientUnits="userSpaceOnUse">
<stop stop-color="#808080" stop-opacity="0.25"/>
<stop offset="0.54" stop-color="#808080" stop-opacity="0.12"/>
<stop offset="1" stop-color="#808080" stop-opacity="0.1"/>
</linearGradient>
<clipPath id="clip0_457:913">
<rect width="199" height="160" fill="white"/>
</clipPath>
</defs>
</svg>
