<svg width="1440" height="1261" viewBox="0 0 1440 1261" fill="none" xmlns="http://www.w3.org/2000/svg">
<path d="M17.754 0V1261" stroke="#212D3D" stroke-opacity="0.11"/>
<path d="M60.7877 0V1261" stroke="#212D3D" stroke-opacity="0.11"/>
<path d="M103.821 0V1261" stroke="#212D3D" stroke-opacity="0.11"/>
<path d="M146.855 0V1261" stroke="#212D3D" stroke-opacity="0.11"/>
<path d="M189.889 0V1261" stroke="#212D3D" stroke-opacity="0.11"/>
<path d="M233.595 0V1261" stroke="#212D3D" stroke-opacity="0.11"/>
<path d="M276.628 0V1261" stroke="#212D3D" stroke-opacity="0.11"/>
<path d="M319.662 0V1261" stroke="#212D3D" stroke-opacity="0.11"/>
<path d="M362.696 0V1261" stroke="#212D3D" stroke-opacity="0.11"/>
<path d="M405.729 0V1261" stroke="#212D3D" stroke-opacity="0.11"/>
<path d="M449.436 0V1261" stroke="#212D3D" stroke-opacity="0.11"/>
<path d="M492.469 0V1261" stroke="#212D3D" stroke-opacity="0.11"/>
<path d="M535.503 0V1261" stroke="#212D3D" stroke-opacity="0.11"/>
<path d="M578.537 0V1261" stroke="#212D3D" stroke-opacity="0.11"/>
<path d="M621.57 0V1261" stroke="#212D3D" stroke-opacity="0.11"/>
<path d="M664.604 0V1261" stroke="#212D3D" stroke-opacity="0.11"/>
<path d="M708.31 0V1261" stroke="#212D3D" stroke-opacity="0.11"/>
<path d="M751.344 0V1261" stroke="#212D3D" stroke-opacity="0.11"/>
<path d="M794.377 0V1261" stroke="#212D3D" stroke-opacity="0.11"/>
<path d="M837.411 0V1261" stroke="#212D3D" stroke-opacity="0.11"/>
<path d="M880.445 0V1261" stroke="#212D3D" stroke-opacity="0.11"/>
<path d="M923.478 0V1261" stroke="#212D3D" stroke-opacity="0.11"/>
<path d="M967.184 0V1261" stroke="#212D3D" stroke-opacity="0.11"/>
<path d="M1010.22 0V1261" stroke="#212D3D" stroke-opacity="0.11"/>
<path d="M1053.25 0V1261" stroke="#212D3D" stroke-opacity="0.11"/>
<path d="M1096.29 0V1261" stroke="#212D3D" stroke-opacity="0.11"/>
<path d="M1139.32 0V1261" stroke="#212D3D" stroke-opacity="0.11"/>
<path d="M1183.03 0V1261" stroke="#212D3D" stroke-opacity="0.11"/>
<path d="M1226.06 0V1261" stroke="#212D3D" stroke-opacity="0.11"/>
<path d="M1269.09 0V1261" stroke="#212D3D" stroke-opacity="0.11"/>
<path d="M1312.13 0V1261" stroke="#212D3D" stroke-opacity="0.11"/>
<path d="M1355.16 0V1261" stroke="#212D3D" stroke-opacity="0.11"/>
<path d="M1398.19 0V1261" stroke="#212D3D" stroke-opacity="0.11"/>
<path d="M-227 1212.58H1610" stroke="#212D3D" stroke-opacity="0.11"/>
<path d="M-227 1169.54H1610" stroke="#212D3D" stroke-opacity="0.11"/>
<path d="M-227 1125.82H1610" stroke="#212D3D" stroke-opacity="0.11"/>
<path d="M-227 1082.78H1610" stroke="#212D3D" stroke-opacity="0.11"/>
<path d="M-227 1039.74H1610" stroke="#212D3D" stroke-opacity="0.11"/>
<path d="M-227 996.694L1610 996.694" stroke="#212D3D" stroke-opacity="0.11"/>
<path d="M-227 953.652L1610 953.652" stroke="#212D3D" stroke-opacity="0.11"/>
<path d="M-227 910.61L1610 910.61" stroke="#212D3D" stroke-opacity="0.11"/>
<path d="M-227 866.895L1610 866.895" stroke="#212D3D" stroke-opacity="0.11"/>
<path d="M-227 823.853L1610 823.853" stroke="#212D3D" stroke-opacity="0.11"/>
<path d="M-227 780.811L1610 780.811" stroke="#212D3D" stroke-opacity="0.11"/>
<path d="M-227 737.769L1610 737.769" stroke="#212D3D" stroke-opacity="0.11"/>
<path d="M-227 694.727L1610 694.727" stroke="#212D3D" stroke-opacity="0.11"/>
<path d="M-227 651.685L1610 651.685" stroke="#212D3D" stroke-opacity="0.11"/>
<path d="M-227 607.97L1610 607.97" stroke="#212D3D" stroke-opacity="0.11"/>
<path d="M-227 564.928L1610 564.928" stroke="#212D3D" stroke-opacity="0.11"/>
<path d="M-227 521.886L1610 521.886" stroke="#212D3D" stroke-opacity="0.11"/>
<path d="M-227 478.844L1610 478.844" stroke="#212D3D" stroke-opacity="0.11"/>
<path d="M-227 435.802L1610 435.802" stroke="#212D3D" stroke-opacity="0.11"/>
<path d="M-227 392.087L1610 392.087" stroke="#212D3D" stroke-opacity="0.11"/>
<path d="M-227 349.045L1610 349.045" stroke="#212D3D" stroke-opacity="0.11"/>
<path d="M-227 306.003L1610 306.003" stroke="#212D3D" stroke-opacity="0.11"/>
<path d="M-227 262.961L1610 262.961" stroke="#212D3D" stroke-opacity="0.11"/>
<path d="M-227 219.918L1610 219.918" stroke="#212D3D" stroke-opacity="0.11"/>
<path d="M-227 176.876L1610 176.876" stroke="#212D3D" stroke-opacity="0.11"/>
<path d="M-227 133.162L1610 133.162" stroke="#212D3D" stroke-opacity="0.11"/>
<path d="M-227 90.1195L1610 90.1195" stroke="#212D3D" stroke-opacity="0.11"/>
<path d="M-227 47.0774L1610 47.0774" stroke="#212D3D" stroke-opacity="0.11"/>
</svg>
