<svg width="68" height="58" viewBox="0 0 68 58" fill="none" xmlns="http://www.w3.org/2000/svg">
<path d="M50.6002 57.6H40.2002C39.5602 57.6 38.9202 57.2 38.6802 56.56L37.6402 53.76C35.4802 54.16 33.2402 54.4 31.0002 54.4C27.4802 54.4 24.0402 53.92 20.7602 52.88L19.3202 56.56C19.0802 57.2 18.5202 57.6 17.8002 57.6H7.4002C6.6002 57.6 5.8802 56.96 5.8002 56.16L4.3602 41.36C1.6402 37.36 0.200195 32.8 0.200195 28.08C0.200195 17.04 8.3602 7.03997 20.5202 3.35997C21.4002 3.11997 22.2802 3.59997 22.5202 4.39997C22.7602 5.27997 22.2802 6.15997 21.4802 6.39997C10.6802 9.75997 3.4002 18.48 3.4002 28.08C3.4002 32.24 4.7602 36.32 7.2402 39.84C7.4002 40.08 7.4802 40.32 7.5602 40.64L8.8402 54.4H16.6802L18.2802 50.32C18.6002 49.52 19.4802 49.12 20.2802 49.44C23.6402 50.64 27.2402 51.2 30.9202 51.2C33.4002 51.2 35.8802 50.96 38.2002 50.4C39.0002 50.24 39.8002 50.64 40.0402 51.36L41.1602 54.4H49.0802L50.3602 45.04C50.4402 44.64 50.6002 44.32 50.9202 44.08C54.2002 41.2 56.5202 37.68 57.7202 33.84C57.8802 33.28 58.3602 32.88 58.9202 32.72L64.2002 31.52V24H59.4002C58.6802 24 58.0402 23.52 57.8802 22.8C56.7602 18.72 54.2802 14.96 50.7602 11.92C50.2002 11.44 50.0402 10.64 50.3602 9.91997L53.7202 3.67997C51.4802 3.43997 47.6402 3.59997 44.7602 6.79997C44.2802 7.27997 43.5602 7.43997 43.0002 7.19997C40.2002 6.07997 37.3202 5.35997 34.2002 5.03997C33.3202 4.95997 32.6802 4.15997 32.7602 3.27997C32.8402 2.39997 33.6402 1.75997 34.5202 1.83997C37.4802 2.15997 40.4402 2.79997 43.1602 3.83997C48.8402 -1.52003 56.3602 0.879967 56.6802 1.03997C57.1602 1.19997 57.4802 1.51997 57.6402 1.99997C57.8002 2.47997 57.8002 2.95997 57.5602 3.35997L53.8002 10.4C57.0002 13.36 59.3202 16.96 60.6002 20.8H65.8002C66.6802 20.8 67.4002 21.52 67.4002 22.4V32.8C67.4002 33.52 66.8402 34.16 66.1202 34.4L60.5202 35.68C59.1602 39.52 56.7602 43.12 53.5602 46.08L52.2002 56.24C52.0402 57.04 51.4002 57.6 50.6002 57.6Z" fill="#212D3D"/>
</svg>
