<svg width="52" height="51" viewBox="0 0 52 51" fill="none" xmlns="http://www.w3.org/2000/svg">
<path d="M48.8963 14.769H36.1331V2.10602C29.0507 -0.808273 21.4402 -0.593689 14.8755 2.10602V14.769H2.12125C-0.814145 21.7996 -0.59796 29.3525 2.12125 35.8704H14.8755V48.5346C21.9586 51.4482 29.5691 51.2337 36.1331 48.5346V35.8704H48.8963C51.8311 28.8378 51.6155 21.2844 48.8963 14.769ZM14.8755 29.5404V31.6502H5.13573C3.94767 27.4959 3.94767 23.1397 5.13573 18.9891H25.5043V14.769H19.1272V5.09879C21.2029 4.51518 23.345 4.21957 25.5171 4.21957C27.6796 4.21957 29.8102 4.51454 31.8815 5.09753V21.0995C31.8815 22.2649 30.9287 23.2093 29.756 23.2093H21.2533C17.7325 23.2099 14.8755 26.0438 14.8755 29.5404ZM45.8812 31.6502H25.505V35.8704H31.8821V45.5418C29.8063 46.1248 27.6662 46.4198 25.4928 46.4198C23.3316 46.4198 21.1997 46.1248 19.1285 45.5418V29.5404C19.1285 28.3732 20.0806 27.4301 21.254 27.4301H29.756C33.2768 27.4301 36.1331 24.5968 36.1331 21.1002V18.9891H45.8812C47.0693 23.1422 47.0693 27.4978 45.8812 31.6502Z" fill="white"/>
</svg>
